<?xml version="1.0" encoding="utf-8"?>
<!-- Generator: Adobe Illustrator 26.0.3, SVG Export Plug-In . SVG Version: 6.00 Build 0)  -->
<svg version="1.1" id="Layer_1" xmlns="http://www.w3.org/2000/svg" xmlns:xlink="http://www.w3.org/1999/xlink" x="0px" y="0px"
	 width="128px" height="172px" viewBox="0 0 128 172" style="enable-background:new 0 0 128 172;" xml:space="preserve">
<style type="text/css">
	.st0{fill:#151F72;}
	.st1{fill:#F8CEEB;}
	.st2{fill:#7FCBF5;}
	.st3{fill:#F9F0E7;}
	.st4{fill:#FFFFFF;filter:url(#Adobe_OpacityMaskFilter);}
	.st5{mask:url(#mask0_1696_1743_00000059292457484326769570000000908230209903934117_);}
	.st6{fill:#81301F;}
	.st7{fill:#9F3139;}
	.st8{fill:#401B26;}
	.st9{fill:#893620;}
	.st10{fill:#151B2B;}
	.st11{fill:#2D2B2A;}
	.st12{fill:#FF9B00;}
	.st13{fill:#FFFFFF;}
</style>
<path class="st0" d="M10.9,83.9l0.2,69.6c0,0,0,0.1,0,0.2c0,0,0,0.1,0,0.2v0.1c0,0,0,0.1,0,0.1c0,0,0,0.1,0.1,0.1
	c0,0,0.1,0.1,0.1,0.1c0,0,0.1,0.1,0.1,0.1l-3.9-2.3c0,0-0.1-0.1-0.1-0.1c0,0-0.1-0.1-0.1-0.1c0,0,0-0.1-0.1-0.1c0,0,0,0,0-0.1
	c0,0,0,0,0-0.1c0,0,0,0,0-0.1c0,0,0,0,0-0.1c0,0,0,0,0-0.1L7,82l3.9,2.3V83.9z"/>
<path class="st1" d="M114.1,17C114.1,17,114.1,17,114.1,17c0.1,0,0.1,0,0.1,0c0,0,0,0,0.1,0c0,0,0,0,0.1,0c0,0,0,0,0.1,0
	c0,0,0,0,0.1,0c0,0,0.1,0,0.1,0c0,0,0.1,0,0.1,0c0,0,0.1,0,0.1,0l4.4,2.1c0,0-0.1,0-0.1,0c0,0-0.1,0-0.1,0c0,0-0.1,0-0.1,0
	c0,0-0.1,0-0.1,0h-0.1h-0.1c0,0-0.1,0-0.2,0.1c0,0-0.1,0-0.2,0.1L12.7,80.8l-3.9-2.3L114.1,17z"/>
<path class="st1" d="M12.3,81.1c0,0-0.1,0.1-0.1,0.1c0,0-0.1,0.1-0.1,0.1c0,0-0.1,0.1-0.1,0.2c-0.1,0.1-0.2,0.3-0.3,0.4
	c0,0,0,0.1-0.1,0.1c0,0,0,0,0,0.1c0,0,0,0.1-0.1,0.2c0,0.1-0.1,0.1-0.1,0.2c0,0.1,0,0.1-0.1,0.2c0,0.1,0,0.1-0.1,0.2
	c0,0.1,0,0.1,0,0.2c0,0.1,0,0.1,0,0.2s0,0.1,0,0.2s0,0.1,0,0.2l-3.9-2.3c0,0,0,0,0-0.1c0,0,0,0,0-0.1c0,0,0,0,0-0.1c0,0,0,0,0-0.1
	c0,0,0,0,0-0.1c0,0,0,0,0-0.1c0,0,0,0,0-0.1c0,0,0,0,0-0.1c0,0,0,0,0-0.1c0,0,0,0,0-0.1c0,0,0,0,0-0.1c0,0,0,0,0-0.1c0,0,0,0,0-0.1
	c0,0,0,0,0-0.1c0,0,0,0,0-0.1c0,0,0,0,0-0.1c0,0,0-0.1,0.1-0.1c0,0,0.1-0.1,0.1-0.1c0,0,0-0.1,0.1-0.1c0,0,0,0,0.1-0.1
	c0,0,0,0,0.1-0.1c0,0,0,0,0.1-0.1c0,0,0,0,0.1-0.1c0,0,0,0,0.1-0.1c0,0,0,0,0.1,0c0,0,0,0,0.1,0c0,0,0,0,0.1,0L12,82
	c0,0-0.1,0.1-0.2,0.1c0,0-0.1,0.1-0.2,0.1L12.3,81.1z"/>
<path class="st2" d="M12.7,80.8c-1,0.6-1.8,1.9-1.8,3.1l0.2,69.6c0,1.2,0.8,1.6,1.8,1l105.3-61.6c1-0.6,1.8-1.9,1.8-3l-0.2-69.6
	c0-1.2-0.8-1.6-1.8-1L12.7,80.8z"/>
<path class="st3" d="M39,125.8c8.8-5.1,16-17.5,16-27.7c0-10.2-7.2-14.3-16-9.2s-16,17.5-16,27.7C23,126.8,30.2,130.9,39,125.8z"/>
<defs>
	<filter id="Adobe_OpacityMaskFilter" filterUnits="userSpaceOnUse" x="20.2" y="82.7" width="38" height="64.6">
		<feColorMatrix  type="matrix" values="1 0 0 0 0  0 1 0 0 0  0 0 1 0 0  0 0 0 1 0"/>
	</filter>
</defs>
<mask maskUnits="userSpaceOnUse" x="20.2" y="82.7" width="38" height="64.6" id="mask0_1696_1743_00000059292457484326769570000000908230209903934117_">
	<path class="st4" d="M39,125.8c8.8-5.1,16-17.5,16-27.7c0-10.2-7.2-14.3-16-9.2s-16,17.5-16,27.7S30.2,130.9,39,125.8z"/>
</mask>
<g class="st5">
	<path class="st6" d="M58.2,125.3l-19,11l-19,11c0,0,0.3-10.3,4.1-14.6c1.2-1.3,2.5-2.7,3.6-3.9c0.2-0.2,0.4-0.4,0.6-0.6
		c0,0,0,0,0,0c1.1-1.2,2.4-2.7,2.9-3.3c0,0,0.1-0.1,0.1-0.1c0,0,0.1-0.1,0.1-0.1c3-3.6,3.3-6.2,3.4-11.4c0-0.1,0-0.3,0-0.4
		c1,0,2.8-0.5,4.3-1.3c1.5-0.9,3.4-2.7,4.3-3.7c0,2.9,0,4.9,0.5,6.2c0.5,1.2,1.3,1.8,2.8,1.8c0.1,0,0.1,0,0.2,0c0,0,0,0,0,0
		c0.5,0,2.1,0,3.3-0.1c0,0,0,0,0,0c0,0,0,0,0,0c1,0,2.5-0.2,3.6-0.3C57.9,115.3,58.2,125.3,58.2,125.3"/>
	<path class="st0" d="M39.2,136.2l-12.6,7.3c0.5-3.2,1.5-11.1,1.4-14.8c0.2-0.2,0.4-0.4,0.6-0.6c0,0,0,0,0,0
		c1.1-1.2,2.4-2.7,2.9-3.3c0,0,0.1-0.1,0.1-0.1c4.1-0.4,11.4-4.5,15.4-8.9c0.1,0,0.1,0,0.2,0c0,0,0,0,0,0c0.5,0,2.1,0,3.3-0.1
		c0,0,0,0,0,0c0,0,0,0,0,0c-0.1,3.9,0.8,11.3,1.4,13.2L39.2,136.2z"/>
	<path class="st7" d="M31.7,102.9c-0.2-0.2-0.6-0.4-0.9-0.1c-0.2,0.3-0.5,1.8-0.4,2.6c0.1,0.8,0.5,1.2,0.8,2.1
		c0.3,0.9,0.6,1.3,1.1,0.9C32.2,107.4,31.7,102.9,31.7,102.9"/>
	<path class="st8" d="M31.6,105.1c0,0.4-0.3,0.8-0.3,1.1s0.5,0.5,0.6,0.8c0-0.7,0-1-0.1-1.2C31.8,105.6,31.6,105.1,31.6,105.1"/>
	<path class="st8" d="M31.5,103.7c-0.2-0.2-0.4-0.6-0.6-0.4c-0.2,0.3-0.3,1.4-0.2,1.9c0-0.3,0.3-1.5,0.4-1.6c0.2-0.1,0.3,0.8,0.4,1
		C31.6,104,31.5,103.7,31.5,103.7z"/>
	<path class="st7" d="M46.6,94.3c0.2-0.4,0.6-1.2,0.9-1.2c0.2,0,0.5,1.2,0.4,2.1c-0.1,0.9-0.5,1.7-0.8,3c-0.3,1.3-0.6,2-1.1,2.2
		C46.2,99.3,46.6,94.3,46.6,94.3"/>
	<path class="st8" d="M46.8,96.4c0,0.4,0.3,0.5,0.3,0.8s-0.5,1.1-0.6,1.5c0-0.7,0-1,0.1-1.3C46.6,97.1,46.8,96.3,46.8,96.4"/>
	<path class="st8" d="M46.8,94.9c0.2-0.4,0.4-1,0.6-1c0.2,0,0.3,1,0.2,1.6c0-0.3-0.2-1-0.3-0.9c-0.2,0.1-0.4,1.5-0.5,1.8
		C46.8,95.8,46.8,94.9,46.8,94.9z"/>
	<path class="st9" d="M47,94.6c0,2-0.4,6.8-1.9,10.3c-1.2,3-3.5,6.7-5.9,8c-2.1,1.2-4.5,0.4-5.9-1.4c-1.7-2.2-1.9-6-1.9-8
		c0-4.3,0.3-7.5,1.6-10.6c1-2.5,3.6-5.9,6.2-7.4c2.9-1.7,4.9-1.3,6.1-0.2c0.2,0.2,0.4,0.4,0.6,0.7C46.8,87.7,47,90.6,47,94.6"/>
	<path class="st10" d="M47.6,89c0.1-0.4,0.1-0.9-0.1-0.9c0.1-0.3,0.1-0.6-0.1-0.8c0,0,0,0-0.1,0c0,0,0,0,0,0c0.1-0.2,0.1-0.3,0-0.5
		c0-0.1-0.1-0.2-0.2-0.2c0,0,0,0,0,0c0-0.4,0-0.6-0.2-0.7c0,0,0,0,0-0.1c0-0.3,0-0.5-0.1-0.6c0,0-0.1,0-0.2,0c0,0,0,0,0,0
		c0-0.2,0-0.3,0-0.5c-0.1-0.1-0.2-0.1-0.3-0.1c0-0.3-0.1-0.6-0.3-0.6c-0.1-0.3-0.3-0.5-0.7-0.4c0-0.1,0-0.2-0.1-0.3
		c-0.1-0.1-0.3-0.1-0.5,0c-0.1-0.2-0.3-0.3-0.6-0.2c0-0.1,0-0.1-0.1-0.1C44,83,43.9,83,43.8,83c-0.1-0.2-0.2-0.2-0.4-0.1
		c-0.1-0.1-0.2-0.2-0.3-0.2c0,0,0,0-0.1,0c-0.2,0-0.5,0.1-0.7,0.3c-0.3-0.1-0.7,0-1,0.4c0,0,0,0,0,0c-0.1-0.1-0.3-0.1-0.5,0
		c-0.1,0-0.2,0.1-0.3,0.2c-0.4-0.1-1,0.2-1.4,0.7c-0.3-0.1-0.7,0.2-1.1,0.6c-0.2,0.1-0.5,0.3-0.7,0.6c-0.4,0.1-1,0.6-1.2,1.2
		c-0.4,0.2-0.9,0.6-1,1.1c-0.5,0.3-1,0.8-1,1.4c0,0,0,0.1-0.1,0.1c-0.2,0.1-0.4,0.4-0.6,0.7c-0.1,0.1-0.1,0.3-0.1,0.4
		c0,0,0,0.1,0,0.1c-0.6,0.4-1.2,1.6-1.2,2.1c-0.4,0.5-0.6,1.2-0.5,1.7c-0.3,0.4-0.5,1-0.4,1.3c-0.3,0.4-0.3,1-0.1,1.2
		c-0.3,0.6-0.4,1.2-0.1,1.5c-0.2,0.5-0.3,1.1,0,1.4c0,0,0,0,0,0.1c-0.1,0.1-0.1,0.2-0.1,0.3c-0.1,0.3,0,0.4,0.1,0.5
		c0,0.2-0.1,0.4-0.1,0.5c0,0.1,0.1,0.2,0.1,0.3c0,0,0,0,0,0.1c-0.1,0.2-0.2,0.5-0.1,0.6c0.1,0.1,0.1,0.3,0.1,0.5
		c0,0.2,0.1,0.4,0.1,0.6c0,0,0,0,0,0c0,0.3,0.1,0.6,0.1,0.9c0,0.1,0,0.2,0,0.3c0-0.1,0-0.2,0-0.2c0-1.7,0.3-4.2,0.7-4.7
		c0.3-0.4,0.3-1.7,0.6-3c0.1-0.2,0.2-0.3,0.3-0.4c0.1-0.2,0.2-0.4,0.3-0.6c0.1-0.2,0.1-0.4,0.2-0.6c0-0.1,0.2-0.2,0.2-0.2
		c0.3-0.2,0.6-0.7,0.8-1.1c0,0,0-0.1,0.1-0.1c0.1,0,0.1-0.1,0.2-0.1c0.2-0.2,0.4-0.4,0.4-0.7c0.4-0.2,0.8-0.6,1-1.1c0,0,0-0.1,0-0.1
		c0,0,0.1,0,0.1,0c0.1,0,0.2,0,0.2,0c0.2,0,0.3-0.2,0.5-0.3c0.3-0.2,0.5-0.8,0.8-0.9c0.4-0.2,0.6-0.1,1-0.6c0.1-0.2,0.4-0.6,0.4-0.6
		c0,0,0,0,0,0c0.2,0.2,0.4,0.1,0.7-0.1c0.3-0.2,0.5-0.3,0.8-0.4c0.3-0.1,0.7-0.5,0.9-0.5c0.1,0,0.2,0.1,0.3,0.1
		c0.1,0.1,0.3,0.1,0.4,0c0.1,0,0.3-0.1,0.4-0.2c0.2-0.1,0.3,0,0.5,0.1c0.2,0.1,0.5,0.1,0.8-0.1c0,0,0.1,0.2,0.1,0.2
		c0.1,0.1,0.2,0.1,0.4,0.1c0.1,0,0.3-0.1,0.4-0.1c0,0,0,0,0,0c0,0.2,0.1,0.4,0.2,0.6c0.1,0.2,0.3,0.3,0.5,0.3c0,0.1,0.1,0.2,0.1,0.4
		c0,0.2,0.3,1.7,0.6,1.8c0.4,0.1,0.6,2.3,0.6,3.9c0,0.1,0,0.2,0,0.2c0,0.1,0,0.3,0,0.4c0-0.1,0-0.3,0.1-0.3c0.1-0.4,0.1-0.7,0.2-1.1
		c0.1-0.2,0.1-0.4,0.1-0.5c0-0.1,0.1-0.2,0.1-0.3c0-0.1,0-0.1,0-0.2c0-0.1,0-0.1,0-0.2c0-0.1,0-0.2,0-0.2c0.1-0.2,0.2-0.5,0.1-0.6
		c0-0.1,0-0.1,0-0.2c0,0,0,0,0,0c0-0.2,0.1-0.3,0-0.4c0,0,0,0,0,0c0,0,0,0,0,0c0.1-0.2,0.1-0.4,0.1-0.6c0,0,0,0,0,0
		c0.1-0.4,0.2-0.7,0-1C47.6,89.7,47.7,89.2,47.6,89"/>
</g>
<path class="st11" d="M47.6,89c0.1-0.4,0.1-0.9-0.1-0.9c0.1-0.3,0.1-0.6-0.1-0.8c0,0,0,0-0.1,0c0,0,0,0,0,0c0.1-0.2,0.1-0.3,0-0.5
	c0-0.1-0.1-0.2-0.2-0.2c0,0,0,0,0,0c0-0.4,0-0.6-0.2-0.7c0,0,0,0,0-0.1c0-0.3,0-0.5-0.1-0.6c0,0-0.1,0-0.2,0c0,0,0,0,0,0
	c0-0.2,0-0.3,0-0.5c-0.1-0.1-0.2-0.1-0.3-0.1c0-0.3-0.1-0.6-0.3-0.6c-0.1-0.3-0.3-0.5-0.7-0.4c0-0.1,0-0.2-0.1-0.3
	c-0.1-0.1-0.3-0.1-0.5,0c-0.1-0.2-0.3-0.3-0.6-0.2c0-0.1,0-0.1-0.1-0.1C44,83,43.9,83,43.8,83c-0.1-0.2-0.2-0.2-0.4-0.1
	c-0.1-0.1-0.2-0.2-0.3-0.2c0,0,0,0-0.1,0c-0.2,0-0.5,0.1-0.7,0.3c-0.3-0.1-0.7,0-1,0.4c0,0,0,0,0,0c-0.1-0.1-0.3-0.1-0.5,0
	c-0.1,0-0.2,0.1-0.3,0.2c-0.4-0.1-1,0.2-1.4,0.7c-0.3-0.1-0.7,0.2-1.1,0.6c-0.2,0.1-0.5,0.3-0.7,0.6c-0.4,0.1-1,0.6-1.2,1.2
	c-0.4,0.2-0.9,0.6-1,1.1c-0.5,0.3-1,0.8-1,1.4c0,0,0,0.1-0.1,0.1c-0.2,0.1-0.4,0.4-0.6,0.7c-0.1,0.1-0.1,0.3-0.1,0.4
	c0,0,0,0.1,0,0.1c-0.6,0.4-1.2,1.6-1.2,2.1c-0.4,0.5-0.6,1.2-0.5,1.7c-0.3,0.4-0.5,1-0.4,1.3c-0.3,0.4-0.3,1-0.1,1.2
	c-0.3,0.6-0.4,1.2-0.1,1.5c-0.2,0.5-0.3,1.1,0,1.4c0,0,0,0,0,0.1c-0.1,0.1-0.1,0.2-0.1,0.3c-0.1,0.3,0,0.4,0.1,0.5
	c0,0.2-0.1,0.4-0.1,0.5c0,0.1,0.1,0.2,0.1,0.3c0,0,0,0,0,0.1c-0.1,0.2-0.2,0.5-0.1,0.6c0.1,0.1,0.1,0.3,0.1,0.5
	c0,0.2,0.1,0.4,0.1,0.6c0,0,0,0,0,0c0,0.3,0.1,0.6,0.1,0.9c0,0.1,0,0.2,0,0.3c0-0.1,0-0.2,0-0.2c0-1.7,0.3-4.2,0.7-4.7
	c0.3-0.4,0.3-1.7,0.6-3c0.1-0.2,0.2-0.3,0.3-0.4c0.1-0.2,0.2-0.4,0.3-0.6c0.1-0.2,0.1-0.4,0.2-0.6c0-0.1,0.2-0.2,0.2-0.2
	c0.3-0.2,0.6-0.7,0.8-1.1c0,0,0-0.1,0.1-0.1c0.1,0,0.1-0.1,0.2-0.1c0.2-0.2,0.4-0.4,0.4-0.7c0.4-0.2,0.8-0.6,1-1.1c0,0,0-0.1,0-0.1
	c0,0,0.1,0,0.1,0c0.1,0,0.2,0,0.2,0c0.2,0,0.3-0.2,0.5-0.3c0.3-0.2,0.5-0.8,0.8-0.9c0.4-0.2,0.6-0.1,1-0.6c0.1-0.2,0.4-0.6,0.4-0.6
	c0,0,0,0,0,0c0.2,0.2,0.4,0.1,0.7-0.1c0.3-0.2,0.5-0.3,0.8-0.4c0.3-0.1,0.7-0.5,0.9-0.5c0.1,0,0.2,0.1,0.3,0.1
	c0.1,0.1,0.3,0.1,0.4,0c0.1,0,0.3-0.1,0.4-0.2c0.2-0.1,0.3,0,0.5,0.1c0.2,0.1,0.5,0.1,0.8-0.1c0,0,0.1,0.2,0.1,0.2
	c0.1,0.1,0.2,0.1,0.4,0.1c0.1,0,0.3-0.1,0.4-0.1c0,0,0,0,0,0c0,0.2,0.1,0.4,0.2,0.6c0.1,0.2,0.3,0.3,0.5,0.3c0,0.1,0.1,0.2,0.1,0.4
	c0,0.2,0.3,1.7,0.6,1.8c0.4,0.1,0.6,2.3,0.6,3.9c0,0.1,0,0.2,0,0.2c0,0.1,0,0.3,0,0.4c0-0.1,0-0.3,0.1-0.3c0.1-0.4,0.1-0.7,0.2-1.1
	c0.1-0.2,0.1-0.4,0.1-0.5c0-0.1,0.1-0.2,0.1-0.3c0-0.1,0-0.1,0-0.2c0-0.1,0-0.1,0-0.2c0-0.1,0-0.2,0-0.2c0.1-0.2,0.2-0.5,0.1-0.6
	c0-0.1,0-0.1,0-0.2c0,0,0,0,0,0c0-0.2,0.1-0.3,0-0.4c0,0,0,0,0,0c0,0,0,0,0,0c0.1-0.2,0.1-0.4,0.1-0.6c0,0,0,0,0,0
	c0.1-0.4,0.2-0.7,0-1C47.6,89.7,47.7,89.2,47.6,89"/>
<path class="st9" d="M31.7,102.9c-0.2-0.2-0.6-0.5-0.9-0.1c-0.2,0.3-0.5,1.8-0.4,2.6c0.1,0.8,0.5,1.2,0.8,2.1
	c0.3,0.9,0.6,1.3,1.1,0.9C32.2,107.4,31.7,102.9,31.7,102.9"/>
<path class="st11" d="M31.6,105.1c0,0.4-0.3,0.8-0.3,1.1s0.5,0.5,0.6,0.8c0-0.7,0-1-0.1-1.2C31.8,105.6,31.6,105.1,31.6,105.1"/>
<path class="st11" d="M31.5,103.7c-0.2-0.2-0.4-0.6-0.6-0.4c-0.2,0.3-0.3,1.4-0.2,1.9c0-0.3,0.3-1.5,0.4-1.6c0.2-0.1,0.3,0.8,0.4,1
	C31.6,104,31.5,103.7,31.5,103.7z"/>
<path class="st9" d="M47.5,93.2c-0.3,0-0.8,0.8-0.9,1.2c0,0-0.4,5-0.6,6.1c0.5-0.2,0.8-0.9,1.1-2.2c0.2-1,0.5-1.7,0.7-2.5
	c0-0.2,0.1-0.3,0.1-0.5C48,94.4,47.8,93.1,47.5,93.2L47.5,93.2z"/>
<path class="st11" d="M46.8,96.4c0,0.4,0.3,0.5,0.3,0.8c0,0.3-0.5,1.1-0.6,1.5c0-0.7,0-1,0.1-1.3C46.6,97.1,46.8,96.4,46.8,96.4"/>
<path class="st11" d="M46.8,94.9c0.2-0.4,0.4-1,0.6-1c0.2,0,0.3,1,0.2,1.6c0-0.3-0.2-1-0.3-0.9c-0.2,0.1-0.4,1.5-0.5,1.8
	C46.8,95.8,46.8,94.9,46.8,94.9z"/>
<path class="st12" d="M113,105.9l14.2-8.2L127.1,81l-5,3l0.1,10.9l-9.2,5.3V105.9z"/>
<path class="st12" d="M0,171.2l14.5-8.4v-5.8L5,162.6V152l-5,2.9V171.2z"/>
<path class="st12" d="M0.1,88.9l5-2.9L5,75.1l9.3-5.3V64L0,72.2L0.1,88.9z"/>
<path class="st12" d="M121.5,19.2l5-2.9L126.5,0L112,8.4v5.8l9.4-5.5L121.5,19.2z"/>
<g>
	<g>
		<path class="st13" d="M77.9,92c-0.3,0.2-0.6,0.7-0.6,1v2.8l9.6-5.6v-2.8c0-0.4-0.3-0.5-0.6-0.4L77.9,92z"/>
		<path class="st13" d="M99.5,79.5c-0.3,0.2-0.6,0.7-0.6,1v2.8l9.6-5.6v-2.8c0-0.4-0.3-0.5-0.6-0.3L99.5,79.5z"/>
		<path class="st13" d="M88.7,85.7c-0.3,0.2-0.6,0.7-0.6,1v2.8l9.6-5.6v-2.8c0-0.4-0.3-0.5-0.6-0.3L88.7,85.7z"/>
	</g>
	<g>
		<path class="st0" d="M79.7,73.5l-1.2,18.7l7.2-4.2l-1.2-17.4L79.7,73.5z"/>
		<path class="st0" d="M101.3,61l-1.2,18.7l7.2-4.2l-1.2-17.4L101.3,61z"/>
		<path class="st0" d="M90.5,67.3L89.3,86l7.2-4.2l-1.2-17.4L90.5,67.3z"/>
		<path class="st13" d="M78.5,71.5v2.8c0,0.4,0.3,0.5,0.6,0.3l6-3.5c0.3-0.2,0.6-0.7,0.6-1v-2.8L78.5,71.5z"/>
		<path class="st13" d="M100.1,59v2.8c0,0.4,0.3,0.5,0.6,0.3l6-3.5c0.3-0.2,0.6-0.7,0.6-1v-2.8L100.1,59z"/>
		<path class="st13" d="M89.3,65.2V68c0,0.4,0.3,0.5,0.6,0.3l6-3.5c0.3-0.2,0.6-0.7,0.6-1v-2.8L89.3,65.2z"/>
		<path class="st0" d="M76.7,95.4c-0.3,0.2-0.6,0.7-0.6,1v2.8l33.7-19.4V77c0-0.4-0.3-0.5-0.6-0.3L76.7,95.4z"/>
		<path class="st0" d="M92.9,51.4c-0.1,0-0.1,0.1-0.2,0.2L75.2,69.2c-0.1,0.1-0.2,0.3-0.3,0.4s-0.1,0.3-0.1,0.5v3.5
			c0,0.2,0.1,0.3,0.2,0.4c0.1,0.1,0.3,0,0.4,0l34.9-20.1c0.1,0,0.2-0.1,0.2-0.2c0.1-0.1,0.1-0.2,0.2-0.3c0.1-0.1,0.1-0.2,0.1-0.3
			c0-0.1,0-0.2,0-0.3v-3.5c0-0.1,0-0.3-0.1-0.3c-0.1-0.1-0.2-0.1-0.3-0.1l-17.4,2.4C93,51.3,92.9,51.3,92.9,51.4z"/>
		<path class="st13" d="M92.9,55.5c-1.3,0.8-2.4,2.6-2.4,4.2c0,1.5,1.1,2.1,2.4,1.4c1.3-0.8,2.4-2.6,2.4-4.2
			C95.3,55.4,94.2,54.7,92.9,55.5z"/>
		<path class="st0" d="M75.4,103.1c-0.1,0-0.2,0.1-0.2,0.1c-0.1,0-0.1,0-0.2,0c-0.1,0-0.1-0.1-0.1-0.2c0-0.1,0-0.1,0-0.2v-2.8
			c0-0.1,0-0.2,0-0.3c0-0.1,0.1-0.2,0.1-0.3c0.1-0.1,0.1-0.2,0.2-0.3c0.1-0.1,0.2-0.1,0.2-0.2l34.9-20.1c0.1,0,0.2-0.1,0.2-0.1
			c0.1,0,0.1,0,0.2,0c0.1,0,0.1,0.1,0.1,0.2c0,0.1,0,0.1,0,0.2v2.8c0,0.1,0,0.2,0,0.3c0,0.1-0.1,0.2-0.1,0.3
			c-0.1,0.1-0.1,0.2-0.2,0.3c-0.1,0.1-0.2,0.1-0.2,0.2L75.4,103.1z"/>
	</g>
</g>
</svg>
