<svg width="130" height="141" viewBox="0 0 130 141" fill="none" xmlns="http://www.w3.org/2000/svg">
<g clip-path="url(#clip0_1090_30969)">
<path d="M71.4589 134.943L71.3957 140.508L0.00622559 99.2803V93.7158L71.4589 134.943Z" fill="#F8CEEB"/>
<path d="M71.4534 134.943L129.88 100.987V106.551L71.3901 140.507L71.4534 134.943Z" fill="#F8CEEB"/>
<path d="M0.00622559 93.7151L58.433 59.7593L129.886 100.987L71.4589 134.943L0.00622559 93.7151Z" fill="#91190F"/>
<path d="M78.6703 76.8313L78.5438 124.761C78.5438 125.836 77.8483 126.911 76.4572 127.67C73.6749 129.314 69.059 129.314 66.2767 127.67C64.8856 126.848 64.1268 125.773 64.1268 124.698L64.2533 76.7681C64.2533 77.843 64.9489 78.918 66.4032 79.74C69.2487 81.384 73.8014 81.384 76.5836 79.74C77.9747 78.918 78.6703 77.843 78.6703 76.8313Z" fill="#F8CEEB"/>
<path d="M76.5775 73.8589C79.423 75.5029 79.423 78.1587 76.5775 79.7395C73.732 81.3203 69.1793 81.3835 66.3971 79.7395C63.6148 78.0954 63.5516 75.4397 66.3971 73.8589C69.2425 72.278 73.7953 72.2148 76.5775 73.8589Z" fill="#91190F"/>
<path d="M100.618 63.8049L100.491 111.735C100.491 112.81 99.7955 113.885 98.4044 114.644C95.6222 116.288 91.0695 116.288 88.224 114.644C86.8329 113.822 86.0741 112.747 86.0741 111.672L86.2006 63.7417C86.2006 64.8167 86.8961 65.8916 88.3505 66.7136C91.1959 68.3577 95.7487 68.3577 98.5309 66.7136C99.922 65.8916 100.618 64.8167 100.618 63.8049Z" fill="#F8CEEB"/>
<path d="M98.4636 60.8325C101.309 62.4765 101.309 65.1323 98.4636 66.7131C95.6181 68.2939 91.1286 68.3571 88.2831 66.7131C85.4377 65.0691 85.4377 62.4133 88.2831 60.8325C91.1286 59.2517 95.6813 59.1884 98.4636 60.8325Z" fill="#91190F"/>
<path d="M122.488 50.718L122.361 98.6482C122.361 99.7232 121.666 100.798 120.275 101.557C117.492 103.201 112.876 103.201 110.094 101.557C108.703 100.735 107.944 99.6599 107.944 98.585L108.071 50.6548C108.071 51.7297 108.766 52.8047 110.221 53.6267C113.066 55.2707 117.619 55.2707 120.401 53.6267C121.792 52.8047 122.488 51.7297 122.488 50.718Z" fill="#F8CEEB"/>
<path d="M120.395 47.7456C123.24 49.3896 123.24 52.0454 120.395 53.6262C117.55 55.207 112.997 55.2702 110.215 53.6262C107.432 51.9821 107.369 49.3264 110.215 47.7456C113.06 46.1648 117.613 46.1015 120.395 47.7456Z" fill="#91190F"/>
<path d="M21.8192 45.53L21.6928 93.4602C21.6928 94.5352 20.9972 95.6101 19.6061 96.3689C16.8239 98.013 12.2079 98.013 9.42566 96.3689C8.03455 95.5469 7.27576 94.4719 7.27576 93.397L7.40222 45.4668C7.40222 46.5417 8.09778 47.6167 9.55213 48.4387C12.3976 50.0828 16.9503 50.0828 19.7325 48.4387C21.1237 47.6167 21.8192 46.5417 21.8192 45.53Z" fill="#F8CEEB"/>
<path d="M19.6649 42.5592C22.5104 44.2032 22.5104 46.859 19.6649 48.4398C16.8194 50.0206 12.2667 50.0839 9.48447 48.4398C6.70225 46.7958 6.63901 44.14 9.48447 42.5592C12.2667 40.9152 16.8827 40.9152 19.6649 42.5592Z" fill="#91190F"/>
<path d="M43.7665 32.4421L43.64 80.3723C43.64 81.4473 42.9445 82.5222 41.5534 83.281C38.7711 84.9251 34.2184 84.9251 31.3729 83.281C29.9818 82.459 29.223 81.3841 29.223 80.3091L29.3495 32.3789C29.3495 33.4539 30.045 34.5288 31.4994 35.3508C34.3449 36.9949 38.8976 36.9949 41.6798 35.3508C43.0709 34.5288 43.7665 33.4539 43.7665 32.4421Z" fill="#F8CEEB"/>
<path d="M41.6125 29.4697C44.458 31.1137 44.458 33.7695 41.6125 35.3503C38.767 36.9311 34.2775 36.9944 31.4321 35.3503C28.5866 33.7063 28.5866 31.0505 31.4321 29.4697C34.2775 27.8889 38.8303 27.8256 41.6125 29.4697Z" fill="#91190F"/>
<path d="M65.6387 19.4158L65.5122 67.346C65.5122 68.4209 64.8167 69.4959 63.4255 70.2547C60.6433 71.8987 56.0273 71.8987 53.2451 70.2547C51.854 69.4326 51.0952 68.3577 51.0952 67.2827L51.2217 19.3525C51.2217 20.4275 51.9172 21.5024 53.3716 22.3245C56.217 23.9685 60.7698 23.9685 63.552 22.3245C64.9431 21.5024 65.6387 20.4275 65.6387 19.4158Z" fill="#F8CEEB"/>
<path d="M63.4844 16.4433C66.3298 18.0874 66.3298 20.7431 63.4844 22.3239C60.6389 23.9048 56.0862 23.968 53.3039 22.3239C50.5217 20.6799 50.4585 18.0241 53.3039 16.4433C56.1494 14.8625 60.7021 14.7993 63.4844 16.4433Z" fill="#91190F"/>
<path d="M71.4589 83.7874L71.3957 89.2886L0.00622559 48.061V42.4966L71.4589 83.7874Z" fill="#FF5805"/>
<path d="M71.4534 83.7849L129.88 49.8291V55.3303L71.3901 89.2861L71.4534 83.7849Z" fill="#FF5805"/>
<path d="M0.00622559 42.4959L58.433 8.54004L129.886 49.8308L71.4589 83.7866L0.00622559 42.4959Z" fill="#FF5805"/>
<path d="M7.97168 40.7246L60.6443 10.1201L91.565 0.00292969L38.8923 30.6074L7.97168 40.7246Z" fill="#F8CEEB"/>
<path d="M38.8923 30.6064L69.6865 76.3235L7.97168 40.7236L38.8923 30.6064Z" fill="#FF5805"/>
<path d="M38.8956 30.6074L91.5683 0.00292969L122.299 45.72L69.6898 76.3245L38.8956 30.6074Z" fill="#91190F"/>
<path d="M36.745 39.2687C34.1525 37.7511 32.0026 39.4584 32.0026 42.9994C32.0026 46.5404 34.0892 50.7137 36.6818 52.1681C39.2743 53.6224 41.4242 51.9784 41.4242 48.4374C41.4242 44.8331 39.3375 40.723 36.745 39.2687Z" fill="#F8CEEB"/>
</g>
<defs>
<clipPath id="clip0_1090_30969">
<rect width="129.879" height="140.502" fill="white"/>
</clipPath>
</defs>
</svg>
