<svg width="96" height="96" viewBox="0 0 96 96" fill="none" xmlns="http://www.w3.org/2000/svg">
<g clip-path="url(#clip0_1671_13428)">
<path d="M51.3131 80.1906L51.2809 83.0025L15.0034 62.169V59.3571L51.3131 80.1906Z" fill="#FBD1EE"/>
<path d="M51.3105 80.1902L81.0008 63.0314V65.8433L51.2783 83.0021L51.3105 80.1902Z" fill="#FBD1EE"/>
<path d="M15.0034 59.3568L44.6938 42.1979L81.0034 63.0314L51.3131 80.1903L15.0034 59.3568Z" fill="#91190F"/>
<path d="M54.9774 50.825L54.9131 75.0456C54.9131 75.5888 54.5597 76.132 53.8527 76.5154C52.4389 77.3462 50.0932 77.3462 48.6794 76.5154C47.9725 76.1 47.5869 75.5568 47.5869 75.0136L47.6512 50.7931C47.6512 51.3363 48.0046 51.8795 48.7437 52.2949C50.1896 53.1257 52.5032 53.1257 53.917 52.2949C54.6239 51.8795 54.9774 51.3363 54.9774 50.825Z" fill="#FBD1EE"/>
<path d="M53.9137 49.323C55.3597 50.1537 55.3597 51.4958 53.9137 52.2946C52.4678 53.0934 50.1542 53.1254 48.7404 52.2946C47.3266 51.4638 47.2945 50.1218 48.7404 49.323C50.1864 48.5241 52.4999 48.4922 53.9137 49.323Z" fill="#91190F"/>
<path d="M66.1302 44.2425L66.0659 68.463C66.0659 69.0062 65.7125 69.5494 65.0056 69.9328C63.5917 70.7636 61.2782 70.7636 59.8322 69.9328C59.1253 69.5174 58.7397 68.9742 58.7397 68.431L58.804 44.2105C58.804 44.7537 59.1575 45.2969 59.8965 45.7123C61.3425 46.5431 63.656 46.5431 65.0698 45.7123C65.7767 45.2969 66.1302 44.7537 66.1302 44.2425Z" fill="#FBD1EE"/>
<path d="M65.0356 42.7404C66.4816 43.5712 66.4816 44.9132 65.0356 45.712C63.5897 46.5109 61.3083 46.5428 59.8623 45.712C58.4163 44.8812 58.4163 43.5392 59.8623 42.7404C61.3083 41.9415 63.6218 41.9096 65.0356 42.7404Z" fill="#91190F"/>
<path d="M77.244 37.6292L77.1797 61.8497C77.1797 62.3929 76.8263 62.9361 76.1193 63.3195C74.7055 64.1503 72.3598 64.1503 70.946 63.3195C70.2391 62.9042 69.8535 62.361 69.8535 61.8177L69.9178 37.5972C69.9178 38.1404 70.2712 38.6836 71.0103 39.099C72.4562 39.9298 74.7698 39.9298 76.1836 39.099C76.8905 38.6836 77.244 38.1404 77.244 37.6292Z" fill="#FBD1EE"/>
<path d="M76.1803 36.1271C77.6263 36.9579 77.6263 38.2999 76.1803 39.0987C74.7344 39.8976 72.4209 39.9295 71.007 39.0987C69.5932 38.268 69.5611 36.9259 71.007 36.1271C72.453 35.3283 74.7665 35.2963 76.1803 36.1271Z" fill="#91190F"/>
<path d="M26.0877 35.0076L26.0235 59.2281C26.0235 59.7713 25.67 60.3145 24.9631 60.698C23.5493 61.5288 21.2036 61.5288 19.7898 60.698C19.0829 60.2826 18.6973 59.7394 18.6973 59.1962L18.7615 34.9756C18.7615 35.5189 19.115 36.0621 19.854 36.4774C21.3 37.3082 23.6135 37.3082 25.0274 36.4774C25.7343 36.0621 26.0877 35.5189 26.0877 35.0076Z" fill="#FBD1EE"/>
<path d="M24.9928 33.5064C26.4388 34.3372 26.4388 35.6793 24.9928 36.4781C23.5469 37.2769 21.2334 37.3089 19.8195 36.4781C18.4057 35.6473 18.3736 34.3053 19.8195 33.5064C21.2334 32.6757 23.579 32.6757 24.9928 33.5064Z" fill="#91190F"/>
<path d="M37.2406 28.3939L37.1763 52.6144C37.1763 53.1576 36.8228 53.7008 36.1159 54.0843C34.7021 54.915 32.3886 54.915 30.9426 54.0843C30.2357 53.6689 29.8501 53.1257 29.8501 52.5825L29.9144 28.3619C29.9144 28.9051 30.2678 29.4483 31.0069 29.8637C32.4528 30.6945 34.7664 30.6945 36.1802 29.8637C36.8871 29.4483 37.2406 28.9051 37.2406 28.3939Z" fill="#FBD1EE"/>
<path d="M36.146 26.8918C37.5919 27.7226 37.5919 29.0646 36.146 29.8635C34.7 30.6623 32.4186 30.6942 30.9727 29.8635C29.5267 29.0327 29.5267 27.6906 30.9727 26.8918C32.4186 26.093 34.7321 26.061 36.146 26.8918Z" fill="#91190F"/>
<path d="M48.3553 21.8113L48.291 46.0318C48.291 46.575 47.9376 47.1182 47.2307 47.5017C45.8168 48.3325 43.4712 48.3325 42.0573 47.5017C41.3504 47.0863 40.9648 46.5431 40.9648 45.9999L41.0291 21.7794C41.0291 22.3226 41.3826 22.8658 42.1216 23.2812C43.5676 24.1119 45.8811 24.1119 47.2949 23.2812C48.0018 22.8658 48.3553 22.3226 48.3553 21.8113Z" fill="#FBD1EE"/>
<path d="M47.2604 20.3092C48.7064 21.14 48.7064 22.482 47.2604 23.2809C45.8145 24.0797 43.5009 24.1117 42.0871 23.2809C40.6733 22.4501 40.6411 21.1081 42.0871 20.3092C43.5331 19.5104 45.8466 19.4784 47.2604 20.3092Z" fill="#91190F"/>
<path d="M51.3131 54.3401L51.2809 57.12L15.0034 36.2866V33.4747L51.3131 54.3401Z" fill="#FF5805"/>
<path d="M51.3105 54.3389L81.0008 37.1801V39.96L51.2783 57.1188L51.3105 54.3389Z" fill="#FF5805"/>
<path d="M15.0034 33.4744L44.6938 16.3155L81.0034 37.1809L51.3131 54.3398L15.0034 33.4744Z" fill="#FF5805"/>
<path d="M19.0513 32.5793L45.8176 17.1139L61.5303 12.0014L34.764 27.4668L19.0513 32.5793Z" fill="#FBD1EE"/>
<path d="M34.764 27.4662L50.4125 50.5684L19.0513 32.5788L34.764 27.4662Z" fill="#FF5805"/>
<path d="M34.7656 27.4668L61.5319 12.0014L77.1483 35.1036L50.4141 50.5689L34.7656 27.4668Z" fill="#91190F"/>
<path d="M33.6726 31.8435C32.3552 31.0766 31.2627 31.9394 31.2627 33.7288C31.2627 35.5181 32.3231 37.6271 33.6405 38.362C34.9579 39.0969 36.0504 38.2661 36.0504 36.4767C36.0504 34.6554 34.9901 32.5784 33.6726 31.8435Z" fill="#FBD1EE"/>
</g>
<defs>
<clipPath id="clip0_1671_13428">
<rect width="66" height="71" fill="white" transform="translate(15 12)"/>
</clipPath>
</defs>
</svg>
