<svg width="20" height="20" viewBox="0 0 20 20" fill="none" xmlns="http://www.w3.org/2000/svg">
<path d="M15.0226 6.722C14.8323 6.722 14.642 6.652 14.4918 6.502L12.4888 4.502C12.3491 4.36086 12.2708 4.17043 12.2708 3.972C12.2708 3.77357 12.3491 3.58313 12.4888 3.442C12.7792 3.152 13.2599 3.152 13.5504 3.442L15.0226 4.912L18.4978 1.452C18.7882 1.162 19.269 1.162 19.5594 1.452C19.8498 1.742 19.8498 2.222 19.5594 2.512L15.5534 6.512C15.4032 6.642 15.2129 6.722 15.0226 6.722Z" fill="#2CC05C"/>
<path opacity="0.4" d="M9.80472 12.21L6.5298 15.48C6.16926 15.16 5.81874 14.83 5.47822 14.49C4.46547 13.472 3.5314 12.3789 2.68403 11.22C1.8628 10.08 1.2018 8.94 0.721083 7.81C0.240361 6.67 0 5.58 0 4.54C0 3.86 0.12018 3.21 0.360541 2.61C0.600902 2 0.981474 1.44 1.51227 0.94C2.15323 0.31 2.85429 0 3.5954 0C3.87582 0 4.15624 0.0600001 4.40662 0.18C4.66701 0.3 4.89735 0.48 5.07762 0.74L7.40111 4.01C7.58138 4.26 7.71158 4.49 7.80171 4.71C7.89185 4.92 7.94192 5.13 7.94192 5.32C7.94192 5.56 7.87182 5.8 7.73161 6.03C7.60141 6.26 7.41113 6.5 7.17077 6.74L6.40962 7.53C6.29946 7.64 6.24938 7.77 6.24938 7.93C6.24938 8.01 6.2594 8.08 6.27943 8.16C6.30947 8.24 6.33952 8.3 6.35955 8.36C6.53982 8.69 6.85028 9.12 7.29095 9.64C7.74162 10.16 8.22234 10.69 8.74313 11.22C9.10367 11.57 9.45419 11.91 9.80472 12.21Z" fill="#5E646E"/>
<path d="M19.9999 16.33C19.9986 16.7074 19.9131 17.0798 19.7495 17.42C19.5793 17.78 19.359 18.12 19.0685 18.44C18.5778 18.98 18.037 19.37 17.4261 19.62C17.416 19.62 17.406 19.63 17.396 19.63C16.8051 19.87 16.1642 20 15.4731 20C14.4516 20 13.36 19.76 12.2082 19.27C11.0565 18.78 9.90477 18.12 8.76306 17.29C8.37247 17 7.98188 16.71 7.61133 16.4L10.8862 13.13C11.1667 13.34 11.417 13.5 11.6274 13.61C11.6774 13.63 11.7375 13.66 11.8076 13.69C11.8877 13.72 11.9679 13.73 12.058 13.73C12.2283 13.73 12.3585 13.67 12.4686 13.56L13.2298 12.81C13.4801 12.56 13.7205 12.37 13.9508 12.25C14.1812 12.11 14.4115 12.04 14.6619 12.04C14.8522 12.04 15.0525 12.08 15.2728 12.17C15.4932 12.26 15.7235 12.39 15.9739 12.56L19.2889 14.91C19.5492 15.09 19.7295 15.3 19.8397 15.55C19.9398 15.8 19.9999 16.05 19.9999 16.33Z" fill="#001096"/>
</svg>
