<svg width="100" height="100" viewBox="0 0 100 100" fill="none" xmlns="http://www.w3.org/2000/svg">
<g clip-path="url(#clip0_1671_13578)">
<path d="M18.3867 48.7791L18.5039 89.2442C18.5039 89.2442 18.5039 89.3023 18.5039 89.3605C18.5039 89.3605 18.5039 89.4186 18.5039 89.4768V89.5349V89.593C18.5039 89.593 18.5039 89.6512 18.5625 89.6512L18.6211 89.7093L18.6797 89.7675L16.3945 88.4303L16.3359 88.3721L16.2773 88.314C16.2773 88.314 16.2773 88.2558 16.2187 88.2558C16.2187 88.2558 16.2187 88.2558 16.2187 88.1977C16.2187 88.1977 16.2187 88.1977 16.2187 88.1396C16.2187 88.1396 16.2187 88.1396 16.2187 88.0814C16.2187 88.0814 16.2187 88.0814 16.2187 88.0233C16.2187 88.0233 16.2187 88.0233 16.2187 87.9651L16.1016 47.6744L18.3867 49.0116V48.7791Z" fill="#151F72"/>
<path d="M78.8555 9.88373C78.9141 9.88373 78.9141 9.88373 78.9141 9.88373C78.9141 9.88373 78.9141 9.88373 78.9727 9.88373C78.9727 9.88373 78.9727 9.88373 79.0312 9.88373C79.0312 9.88373 79.0312 9.88373 79.0898 9.88373C79.0898 9.88373 79.0898 9.88373 79.1484 9.88373H79.207H79.2656H79.3242L81.9023 11.1047H81.8437H81.7852H81.7266H81.668H81.6094H81.5508C81.5508 11.1047 81.4922 11.1047 81.4336 11.1628C81.4336 11.1628 81.375 11.1628 81.3164 11.2209L19.4414 46.9767L17.1562 45.6395L78.8555 9.88373Z" fill="#F8CEEB"/>
<path d="M19.207 47.1512L19.1484 47.2093L19.0898 47.2674C19.0898 47.2674 19.0312 47.3256 19.0312 47.3837C18.9727 47.4419 18.9141 47.5581 18.8555 47.6163C18.8555 47.6163 18.8555 47.6744 18.7969 47.6744C18.7969 47.6744 18.7969 47.6744 18.7969 47.7326C18.7969 47.7326 18.7969 47.7907 18.7383 47.8488C18.7383 47.907 18.6797 47.907 18.6797 47.9651C18.6797 48.0233 18.6797 48.0233 18.6211 48.0814C18.6211 48.1395 18.6211 48.1395 18.5625 48.1977C18.5625 48.2558 18.5625 48.2558 18.5625 48.314C18.5625 48.3721 18.5625 48.3721 18.5625 48.4302C18.5625 48.4884 18.5625 48.4884 18.5625 48.5465C18.5625 48.6047 18.5625 48.6047 18.5625 48.6628L16.2773 47.3256C16.2773 47.3256 16.2773 47.3256 16.2773 47.2674C16.2773 47.2674 16.2773 47.2674 16.2773 47.2093C16.2773 47.2093 16.2773 47.2093 16.2773 47.1512C16.2773 47.1512 16.2773 47.1512 16.2773 47.093C16.2773 47.093 16.2773 47.093 16.2773 47.0349C16.2773 47.0349 16.2773 47.0349 16.2773 46.9768C16.2773 46.9768 16.2773 46.9767 16.2773 46.9186C16.2773 46.9186 16.2773 46.9186 16.2773 46.8605C16.2773 46.8605 16.2773 46.8605 16.2773 46.8023C16.2773 46.8023 16.2773 46.8023 16.2773 46.7442C16.2773 46.7442 16.2773 46.7442 16.2773 46.6861C16.2773 46.6861 16.2773 46.686 16.2773 46.6279C16.2773 46.6279 16.2773 46.6279 16.2773 46.5698C16.2773 46.5698 16.2773 46.5698 16.2773 46.5116C16.2773 46.5116 16.2773 46.5116 16.2773 46.4535C16.2773 46.4535 16.2773 46.4535 16.2773 46.3954C16.2773 46.3954 16.2773 46.3372 16.3359 46.3372L16.3945 46.2791C16.3945 46.2791 16.3945 46.2209 16.4531 46.2209C16.4531 46.2209 16.4531 46.2209 16.5117 46.1628C16.5117 46.1628 16.5117 46.1628 16.5703 46.1047C16.5703 46.1047 16.5703 46.1047 16.6289 46.0465C16.6289 46.0465 16.6289 46.0465 16.6875 45.9884C16.6875 45.9884 16.6875 45.9884 16.7461 45.9302C16.7461 45.9302 16.7461 45.9302 16.8047 45.9302C16.8047 45.9302 16.8047 45.9302 16.8633 45.9302C16.8633 45.9302 16.8633 45.9302 16.9219 45.9302L19.0312 47.6744C19.0312 47.6744 18.9727 47.7326 18.9141 47.7326C18.9141 47.7326 18.8555 47.7907 18.7969 47.7907L19.207 47.1512Z" fill="#F8CEEB"/>
<path d="M19.4414 46.9768C18.8555 47.3256 18.3867 48.0814 18.3867 48.7791L18.5039 89.2442C18.5039 89.9419 18.9727 90.1744 19.5586 89.8256L81.2578 54.0116C81.8437 53.6628 82.3125 52.907 82.3125 52.2675L82.1953 11.8023C82.1953 11.1047 81.7266 10.8721 81.1406 11.2209L19.4414 46.9768Z" fill="#7FCBF5"/>
<path d="M34.8516 73.1395C40.0078 70.1744 44.2266 62.9651 44.2266 57.0349C44.2266 51.1047 40.0078 48.7209 34.8516 51.6861C29.6953 54.6512 25.4766 61.8605 25.4766 67.7907C25.4766 73.7209 29.6953 76.1047 34.8516 73.1395Z" fill="#F9F0E7"/>
<path d="M46.1016 72.8489L34.9688 79.2442L23.8359 85.6396C23.8359 85.6396 24.0117 79.6512 26.2383 77.1512C26.9414 76.3954 27.7031 75.5814 28.3477 74.8838C28.4648 74.7675 28.582 74.6512 28.6992 74.5349C29.3437 73.8373 30.1055 72.9652 30.3984 72.6163L30.457 72.5582L30.5156 72.5C32.2734 70.407 32.4492 68.8954 32.5078 65.8721C32.5078 65.814 32.5078 65.6977 32.5078 65.6396C33.0937 65.6396 34.1484 65.3489 35.0273 64.8838C35.9062 64.3605 37.0195 63.314 37.5469 62.7326C37.5469 64.4187 37.5469 65.5814 37.8398 66.3373C38.1328 67.0349 38.6016 67.3838 39.4805 67.3838C39.5391 67.3838 39.5391 67.3838 39.5977 67.3838C39.8906 67.3838 40.8281 67.3838 41.5313 67.3256C42.1172 67.3256 42.9961 67.2093 43.6406 67.1512C45.9258 67.0349 46.1016 72.8489 46.1016 72.8489Z" fill="#81301F"/>
<path d="M34.9688 79.1861L27.5859 83.4302C27.8789 81.5698 28.4648 76.9768 28.4062 74.8256C28.5234 74.7093 28.6406 74.593 28.7578 74.4768C29.4023 73.7791 30.1641 72.907 30.457 72.5582L30.5156 72.5C32.918 72.2675 37.1953 69.8837 39.5391 67.3256C39.5977 67.3256 39.5977 67.3256 39.6563 67.3256C39.9492 67.3256 40.8867 67.3256 41.5898 67.2675C41.5312 69.5349 42.0586 73.8372 42.4102 74.9419L34.9688 79.1861Z" fill="#151F72"/>
<path d="M30.5741 59.8256C30.457 59.7093 30.2226 59.5931 30.0468 59.7675C29.9296 59.9419 29.7538 60.814 29.8124 61.2791C29.871 61.7442 30.1054 61.9768 30.2812 62.5C30.457 63.0233 30.6327 63.2558 30.9257 63.0233C30.8671 62.4419 30.5741 59.8256 30.5741 59.8256Z" fill="#9F3139"/>
<path d="M30.5156 61.1047C30.5156 61.3372 30.3398 61.5698 30.3398 61.7442C30.3398 61.9186 30.6328 62.0349 30.6914 62.2093C30.6914 61.8024 30.6914 61.6279 30.6328 61.5117C30.6328 61.3954 30.5156 61.1047 30.5156 61.1047Z" fill="#401B26"/>
<path d="M30.4571 60.2907C30.3399 60.1745 30.2227 59.9419 30.1055 60.0582C29.9883 60.2326 29.9297 60.8721 29.9883 61.1628C29.9883 60.9884 30.1641 60.2907 30.2227 60.2326C30.3399 60.1745 30.3985 60.6977 30.4571 60.814C30.5157 60.4652 30.4571 60.2907 30.4571 60.2907Z" fill="#401B26"/>
<path d="M39.3047 54.8256C39.4219 54.593 39.6562 54.1279 39.832 54.1279C39.9492 54.1279 40.125 54.8256 40.0664 55.3489C40.0078 55.8721 39.7734 56.3372 39.5977 57.093C39.4219 57.8489 39.2461 58.2558 38.9531 58.3721C39.0703 57.7326 39.3047 54.8256 39.3047 54.8256Z" fill="#9F3139"/>
<path d="M39.4219 56.0466C39.4219 56.2791 39.5977 56.3373 39.5977 56.5117C39.5977 56.6861 39.3047 57.1512 39.2461 57.3838C39.2461 56.9768 39.2461 56.8024 39.3047 56.628C39.3047 56.4535 39.4219 55.9884 39.4219 56.0466Z" fill="#401B26"/>
<path d="M39.4219 55.1744C39.5391 54.9419 39.6563 54.593 39.7734 54.593C39.8906 54.593 39.9492 55.1744 39.8906 55.5232C39.8906 55.3488 39.7734 54.9419 39.7148 55C39.5977 55.0581 39.4805 55.8721 39.4219 56.0465C39.4219 55.6977 39.4219 55.1744 39.4219 55.1744Z" fill="#401B26"/>
<path d="M39.5391 55.0001C39.5391 56.1628 39.3047 58.9535 38.4258 60.9884C37.7227 62.7326 36.375 64.8838 34.9688 65.6396C33.7383 66.3373 32.332 65.8721 31.5117 64.8256C30.5156 63.5466 30.3984 61.3373 30.3984 60.1745C30.3984 57.6745 30.5742 55.814 31.3359 54.0117C31.9219 52.5582 33.4453 50.5814 34.9688 49.7094C36.668 48.721 37.8398 48.9535 38.543 49.5931C38.6602 49.7094 38.7773 49.8256 38.8945 50.0001C39.4219 50.9884 39.5391 52.6745 39.5391 55.0001Z" fill="#893620"/>
<path d="M39.8907 51.7442C39.9493 51.5117 39.9493 51.221 39.8321 51.221C39.8907 51.0465 39.8907 50.8721 39.7735 50.7558C39.7735 50.7558 39.7735 50.7558 39.7149 50.7558C39.7735 50.6396 39.7735 50.5814 39.7149 50.4651C39.7149 50.407 39.6564 50.3489 39.5978 50.3489C39.5978 50.1163 39.5978 50 39.4806 49.9419C39.4806 49.9419 39.4806 49.9419 39.4806 49.8837C39.4806 49.7093 39.4806 49.593 39.422 49.5349C39.422 49.5349 39.3634 49.5349 39.3048 49.5349C39.3048 49.4186 39.3048 49.3605 39.3048 49.2442C39.2462 49.1861 39.1876 49.1861 39.129 49.1861C39.129 49.0117 39.0704 48.8372 38.9532 48.8372C38.8946 48.6628 38.7774 48.5465 38.5431 48.6047C38.5431 48.5465 38.5431 48.4884 38.4845 48.4303C38.4259 48.3721 38.3087 48.3721 38.1915 48.4303C38.1329 48.314 38.0157 48.2558 37.8399 48.314C37.8399 48.2558 37.8399 48.2558 37.7814 48.2558C37.7814 48.2558 37.7228 48.2558 37.6642 48.2558C37.6056 48.1396 37.547 48.1396 37.4298 48.1977C37.3712 48.1396 37.3126 48.0814 37.254 48.0814C37.254 48.0814 37.254 48.0814 37.1954 48.0814C37.0782 48.0814 36.9024 48.1396 36.7853 48.2558C36.6095 48.1977 36.3751 48.2558 36.1993 48.4884C36.1407 48.4303 36.0235 48.4303 35.9064 48.4884C35.8478 48.4884 35.7892 48.5465 35.7306 48.6047C35.4962 48.5465 35.1446 48.721 34.9103 49.0117C34.7345 48.9535 34.5001 49.1279 34.2657 49.3605C34.1485 49.4186 33.9728 49.5349 33.8556 49.7093C33.6212 49.7675 33.2696 50.0582 33.1524 50.407C32.9181 50.5233 32.6251 50.7558 32.5665 51.0465C32.2735 51.221 31.9806 51.5117 31.9806 51.8605C31.9806 51.8605 31.9806 51.9186 31.922 51.9186C31.8048 51.9768 31.6876 52.1512 31.5704 52.3256C31.5118 52.3837 31.5118 52.5 31.5118 52.5582V52.6163C31.1603 52.8489 30.8087 53.5465 30.8087 53.8372C30.5743 54.1279 30.4571 54.5349 30.5157 54.8256C30.3399 55.0582 30.2228 55.407 30.2814 55.5814C30.1056 55.814 30.1056 56.1628 30.2228 56.2791C30.047 56.6279 29.9884 56.9768 30.1642 57.1512C30.047 57.4419 29.9884 57.7907 30.1642 57.9651C30.1642 57.9651 30.1642 57.9651 30.1642 58.0233C30.1056 58.0814 30.1056 58.1396 30.1056 58.1977C30.047 58.3721 30.1056 58.4303 30.1642 58.4884C30.1642 58.6047 30.1056 58.721 30.1056 58.7791C30.1056 58.8372 30.1642 58.8954 30.1642 58.9535C30.1642 58.9535 30.1642 58.9535 30.1642 59.0117C30.1056 59.1279 30.047 59.3024 30.1056 59.3605C30.1642 59.4186 30.1642 59.5349 30.1642 59.6512C30.1642 59.7675 30.2228 59.8837 30.2228 60C30.2228 60.1744 30.2814 60.3489 30.2814 60.5233C30.2814 60.5814 30.2814 60.6396 30.2814 60.6977C30.2814 60.6396 30.2814 60.5814 30.2814 60.5814C30.2814 59.593 30.4571 58.1396 30.6915 57.8489C30.8673 57.6163 30.8673 56.8605 31.0431 56.1047C31.1017 55.9884 31.1603 55.9303 31.2189 55.8721C31.2774 55.7558 31.336 55.6396 31.3946 55.5233C31.4532 55.407 31.4532 55.2907 31.5118 55.1744C31.5118 55.1163 31.629 55.0582 31.629 55.0582C31.8048 54.9419 31.9806 54.6512 32.0978 54.4186C32.0978 54.4186 32.0978 54.3605 32.1564 54.3605C32.2149 54.3605 32.2149 54.3024 32.2735 54.3024C32.3907 54.1861 32.5079 54.0698 32.5079 53.8954C32.7423 53.7791 32.9767 53.5465 33.0939 53.2558V53.1977H33.1524C33.211 53.1977 33.2696 53.1977 33.2696 53.1977C33.3868 53.1977 33.4454 53.0814 33.5626 53.0233C33.7384 52.907 33.8556 52.5582 34.0314 52.5C34.2657 52.3837 34.3829 52.4419 34.6173 52.1512C34.6759 52.0349 34.8517 51.8024 34.8517 51.8024C34.9689 51.9186 35.086 51.8605 35.2618 51.7442C35.4376 51.6279 35.5548 51.5698 35.7306 51.5117C35.9064 51.4535 36.1407 51.221 36.2579 51.221C36.3165 51.221 36.3751 51.2791 36.4337 51.2791C36.4923 51.3372 36.6095 51.3372 36.6681 51.2791C36.7267 51.2791 36.8439 51.221 36.9024 51.1628C37.0196 51.1047 37.0782 51.1628 37.1954 51.221C37.3126 51.2791 37.4884 51.2791 37.6642 51.1628L37.7228 51.2791C37.7814 51.3372 37.8399 51.3372 37.9571 51.3372C38.0157 51.3372 38.1329 51.2791 38.1915 51.2791C38.1915 51.3954 38.2501 51.5117 38.3087 51.6279C38.3673 51.7442 38.4845 51.8024 38.6017 51.8024C38.6017 51.8605 38.6603 51.9186 38.6603 52.0349C38.6603 52.1512 38.836 53.0233 39.0118 53.0814C39.2462 53.1396 39.3634 54.4186 39.3634 55.3489C39.3634 55.407 39.3634 55.4651 39.3634 55.4651C39.3634 55.5233 39.3634 55.6396 39.3634 55.6977C39.3634 55.6396 39.3634 55.5233 39.422 55.5233C39.4806 55.2907 39.4806 55.1163 39.5392 54.8837C39.5978 54.7675 39.5978 54.6512 39.5978 54.5931C39.5978 54.5349 39.6564 54.4768 39.6564 54.4186C39.6564 54.3605 39.6564 54.3605 39.6564 54.3024C39.6564 54.2442 39.6564 54.2442 39.6564 54.1861C39.6564 54.1279 39.6564 54.0698 39.6564 54.0698C39.7149 53.9535 39.7735 53.7791 39.7149 53.721C39.7149 53.6628 39.7149 53.6628 39.7149 53.6047C39.7149 53.4884 39.7735 53.4303 39.7149 53.3721C39.7735 53.2558 39.7735 53.1396 39.7735 53.0233C39.8321 52.7907 39.8907 52.6163 39.7735 52.4419C39.8907 52.1512 39.9493 51.8605 39.8907 51.7442Z" fill="#151B2B"/>
<path d="M39.8907 51.7442C39.9493 51.5117 39.9493 51.221 39.8321 51.221C39.8907 51.0465 39.8907 50.8721 39.7735 50.7558C39.7735 50.7558 39.7735 50.7558 39.7149 50.7558C39.7735 50.6396 39.7735 50.5814 39.7149 50.4651C39.7149 50.407 39.6564 50.3489 39.5978 50.3489C39.5978 50.1163 39.5978 50 39.4806 49.9419C39.4806 49.9419 39.4806 49.9419 39.4806 49.8837C39.4806 49.7093 39.4806 49.593 39.422 49.5349C39.422 49.5349 39.3634 49.5349 39.3048 49.5349C39.3048 49.4186 39.3048 49.3605 39.3048 49.2442C39.2462 49.1861 39.1876 49.1861 39.129 49.1861C39.129 49.0117 39.0704 48.8372 38.9532 48.8372C38.8946 48.6628 38.7774 48.5465 38.5431 48.6047C38.5431 48.5465 38.5431 48.4884 38.4845 48.4303C38.4259 48.3721 38.3087 48.3721 38.1915 48.4303C38.1329 48.314 38.0157 48.2558 37.8399 48.314C37.8399 48.2558 37.8399 48.2558 37.7814 48.2558C37.7814 48.2558 37.7228 48.2558 37.6642 48.2558C37.6056 48.1396 37.547 48.1396 37.4298 48.1977C37.3712 48.1396 37.3126 48.0814 37.254 48.0814C37.254 48.0814 37.254 48.0814 37.1954 48.0814C37.0782 48.0814 36.9024 48.1396 36.7853 48.2558C36.6095 48.1977 36.3751 48.2558 36.1993 48.4884C36.1407 48.4303 36.0235 48.4303 35.9064 48.4884C35.8478 48.4884 35.7892 48.5465 35.7306 48.6047C35.4962 48.5465 35.1446 48.721 34.9103 49.0117C34.7345 48.9535 34.5001 49.1279 34.2657 49.3605C34.1485 49.4186 33.9728 49.5349 33.8556 49.7093C33.6212 49.7675 33.2696 50.0582 33.1524 50.407C32.9181 50.5233 32.6251 50.7558 32.5665 51.0465C32.2735 51.221 31.9806 51.5117 31.9806 51.8605C31.9806 51.8605 31.9806 51.9186 31.922 51.9186C31.8048 51.9768 31.6876 52.1512 31.5704 52.3256C31.5118 52.3837 31.5118 52.5 31.5118 52.5582V52.6163C31.1603 52.8489 30.8087 53.5465 30.8087 53.8372C30.5743 54.1279 30.4571 54.5349 30.5157 54.8256C30.3399 55.0582 30.2228 55.407 30.2814 55.5814C30.1056 55.814 30.1056 56.1628 30.2228 56.2791C30.047 56.6279 29.9884 56.9768 30.1642 57.1512C30.047 57.4419 29.9884 57.7907 30.1642 57.9651C30.1642 57.9651 30.1642 57.9651 30.1642 58.0233C30.1056 58.0814 30.1056 58.1396 30.1056 58.1977C30.047 58.3721 30.1056 58.4303 30.1642 58.4884C30.1642 58.6047 30.1056 58.721 30.1056 58.7791C30.1056 58.8372 30.1642 58.8954 30.1642 58.9535C30.1642 58.9535 30.1642 58.9535 30.1642 59.0117C30.1056 59.1279 30.047 59.3024 30.1056 59.3605C30.1642 59.4186 30.1642 59.5349 30.1642 59.6512C30.1642 59.7675 30.2228 59.8837 30.2228 60C30.2228 60.1744 30.2814 60.3489 30.2814 60.5233C30.2814 60.5814 30.2814 60.6396 30.2814 60.6977C30.2814 60.6396 30.2814 60.5814 30.2814 60.5814C30.2814 59.593 30.4571 58.1396 30.6915 57.8489C30.8673 57.6163 30.8673 56.8605 31.0431 56.1047C31.1017 55.9884 31.1603 55.9303 31.2189 55.8721C31.2774 55.7558 31.336 55.6396 31.3946 55.5233C31.4532 55.407 31.4532 55.2907 31.5118 55.1744C31.5118 55.1163 31.629 55.0582 31.629 55.0582C31.8048 54.9419 31.9806 54.6512 32.0978 54.4186C32.0978 54.4186 32.0978 54.3605 32.1564 54.3605C32.2149 54.3605 32.2149 54.3024 32.2735 54.3024C32.3907 54.1861 32.5079 54.0698 32.5079 53.8954C32.7423 53.7791 32.9767 53.5465 33.0939 53.2558V53.1977H33.1524C33.211 53.1977 33.2696 53.1977 33.2696 53.1977C33.3868 53.1977 33.4454 53.0814 33.5626 53.0233C33.7384 52.907 33.8556 52.5582 34.0314 52.5C34.2657 52.3837 34.3829 52.4419 34.6173 52.1512C34.6759 52.0349 34.8517 51.8024 34.8517 51.8024C34.9689 51.9186 35.086 51.8605 35.2618 51.7442C35.4376 51.6279 35.5548 51.5698 35.7306 51.5117C35.9064 51.4535 36.1407 51.221 36.2579 51.221C36.3165 51.221 36.3751 51.2791 36.4337 51.2791C36.4923 51.3372 36.6095 51.3372 36.6681 51.2791C36.7267 51.2791 36.8439 51.221 36.9024 51.1628C37.0196 51.1047 37.0782 51.1628 37.1954 51.221C37.3126 51.2791 37.4884 51.2791 37.6642 51.1628L37.7228 51.2791C37.7814 51.3372 37.8399 51.3372 37.9571 51.3372C38.0157 51.3372 38.1329 51.2791 38.1915 51.2791C38.1915 51.3954 38.2501 51.5117 38.3087 51.6279C38.3673 51.7442 38.4845 51.8024 38.6017 51.8024C38.6017 51.8605 38.6603 51.9186 38.6603 52.0349C38.6603 52.1512 38.836 53.0233 39.0118 53.0814C39.2462 53.1396 39.3634 54.4186 39.3634 55.3489C39.3634 55.407 39.3634 55.4651 39.3634 55.4651C39.3634 55.5233 39.3634 55.6396 39.3634 55.6977C39.3634 55.6396 39.3634 55.5233 39.422 55.5233C39.4806 55.2907 39.4806 55.1163 39.5392 54.8837C39.5978 54.7675 39.5978 54.6512 39.5978 54.5931C39.5978 54.5349 39.6564 54.4768 39.6564 54.4186C39.6564 54.3605 39.6564 54.3605 39.6564 54.3024C39.6564 54.2442 39.6564 54.2442 39.6564 54.1861C39.6564 54.1279 39.6564 54.0698 39.6564 54.0698C39.7149 53.9535 39.7735 53.7791 39.7149 53.721C39.7149 53.6628 39.7149 53.6628 39.7149 53.6047C39.7149 53.4884 39.7735 53.4303 39.7149 53.3721C39.7735 53.2558 39.7735 53.1396 39.7735 53.0233C39.8321 52.7907 39.8907 52.6163 39.7735 52.4419C39.8907 52.1512 39.9493 51.8605 39.8907 51.7442Z" fill="#2D2B2A"/>
<path d="M30.5741 59.8256C30.457 59.7093 30.2226 59.5349 30.0468 59.7675C29.9296 59.9419 29.7538 60.814 29.8124 61.2791C29.871 61.7442 30.1054 61.9768 30.2812 62.5C30.457 63.0233 30.6327 63.2558 30.9257 63.0233C30.8671 62.4419 30.5741 59.8256 30.5741 59.8256Z" fill="#893620"/>
<path d="M30.5156 61.1046C30.5156 61.3372 30.3398 61.5697 30.3398 61.7441C30.3398 61.9186 30.6328 62.0348 30.6914 62.2093C30.6914 61.8023 30.6914 61.6279 30.6328 61.5116C30.6328 61.3953 30.5156 61.1046 30.5156 61.1046Z" fill="#2D2B2A"/>
<path d="M30.4571 60.2907C30.3399 60.1744 30.2227 59.9418 30.1055 60.0581C29.9883 60.2325 29.9297 60.8721 29.9883 61.1628C29.9883 60.9883 30.1641 60.2907 30.2227 60.2325C30.3399 60.1744 30.3985 60.6977 30.4571 60.8139C30.5157 60.4651 30.4571 60.2907 30.4571 60.2907Z" fill="#2D2B2A"/>
<path d="M39.832 54.186C39.6562 54.186 39.3633 54.6511 39.3047 54.8837C39.3047 54.8837 39.0703 57.7907 38.9531 58.4302C39.2461 58.3139 39.4219 57.907 39.5977 57.1511C39.7148 56.5697 39.8906 56.1628 40.0078 55.6977C40.0078 55.5814 40.0664 55.5232 40.0664 55.407C40.125 54.8837 40.0078 54.1279 39.832 54.186Z" fill="#893620"/>
<path d="M39.4219 56.0465C39.4219 56.2791 39.5977 56.3372 39.5977 56.5116C39.5977 56.686 39.3047 57.1512 39.2461 57.3837C39.2461 56.9767 39.2461 56.8023 39.3047 56.6279C39.3047 56.4535 39.4219 56.0465 39.4219 56.0465Z" fill="#2D2B2A"/>
<path d="M39.4219 55.1744C39.5391 54.9419 39.6563 54.593 39.7734 54.593C39.8906 54.593 39.9492 55.1744 39.8906 55.5232C39.8906 55.3488 39.7734 54.9419 39.7148 55C39.5977 55.0581 39.4805 55.8721 39.4219 56.0465C39.4219 55.6977 39.4219 55.1744 39.4219 55.1744Z" fill="#2D2B2A"/>
<path d="M78.2109 61.5698L86.5312 56.8023L86.4727 47.093L83.543 48.8372L83.6016 55.1744L78.2109 58.2558V61.5698Z" fill="#FF9B00"/>
<path d="M12 99.5349L20.4961 94.6511V91.279L14.9297 94.5349V88.3721L12 90.0581V99.5349Z" fill="#FF9B00"/>
<path d="M12.0586 51.686L14.9883 50L14.9297 43.6628L20.3789 40.5814V37.2093L12 41.9767L12.0586 51.686Z" fill="#FF9B00"/>
<path d="M83.1914 11.1628L86.1211 9.47674V0L77.625 4.88372V8.25581L83.1328 5.05814L83.1914 11.1628Z" fill="#FF9B00"/>
<path d="M58.6992 42.7326L57.9961 53.6046L62.2148 51.1628L61.5117 41.0465L58.6992 42.7326Z" fill="#151F72"/>
<path d="M71.3555 35.4651L70.6523 46.3372L74.8711 43.8953L74.168 33.7791L71.3555 35.4651Z" fill="#151F72"/>
<path d="M65.0273 39.1279L64.3242 50L68.543 47.5582L67.8398 37.4419L65.0273 39.1279Z" fill="#151F72"/>
<path d="M56.9414 55.4651C56.7656 55.5814 56.5898 55.8721 56.5898 56.0465V57.6744L76.3359 46.3954V44.7675C76.3359 44.5349 76.1602 44.4768 75.9844 44.5931L56.9414 55.4651Z" fill="#151F72"/>
<path d="M66.4336 29.8837C66.375 29.8837 66.375 29.9419 66.3164 30L56.0625 40.2326C56.0039 40.2907 55.9453 40.407 55.8867 40.4651C55.8281 40.5233 55.8281 40.6395 55.8281 40.7558V42.7907C55.8281 42.907 55.8867 42.9651 55.9453 43.0233C56.0039 43.0814 56.1211 43.0233 56.1797 43.0233L76.6289 31.3372C76.6875 31.3372 76.7461 31.2791 76.7461 31.2209C76.8047 31.1628 76.8047 31.1047 76.8633 31.0465C76.9219 30.9884 76.9219 30.9302 76.9219 30.8721C76.9219 30.814 76.9219 30.7558 76.9219 30.6977V28.6628C76.9219 28.6047 76.9219 28.4884 76.8633 28.4884C76.8047 28.4302 76.7461 28.4302 76.6875 28.4302L66.4922 29.8256C66.4922 29.8256 66.4336 29.8256 66.4336 29.8837Z" fill="#151F72"/>
<path d="M56.1797 59.9418C56.1211 59.9418 56.0625 60 56.0625 60C56.0039 60 56.0039 60 55.9453 60C55.8867 60 55.8867 59.9418 55.8867 59.8837C55.8867 59.8256 55.8867 59.8256 55.8867 59.7674V58.1395C55.8867 58.0814 55.8867 58.0232 55.8867 57.9651C55.8867 57.907 55.9453 57.8488 55.9453 57.7907C56.0039 57.7325 56.0039 57.6744 56.0625 57.6163C56.1211 57.5581 56.1797 57.5581 56.1797 57.5L76.6289 45.8139C76.6875 45.8139 76.7461 45.7558 76.7461 45.7558C76.8047 45.7558 76.8047 45.7558 76.8633 45.7558C76.9219 45.7558 76.9219 45.8139 76.9219 45.8721C76.9219 45.9302 76.9219 45.9302 76.9219 45.9884V47.6163C76.9219 47.6744 76.9219 47.7325 76.9219 47.7907C76.9219 47.8488 76.8633 47.907 76.8633 47.9651C76.8047 48.0232 76.8047 48.0814 76.7461 48.1395C76.6875 48.1977 76.6289 48.1977 76.6289 48.2558L56.1797 59.9418Z" fill="#151F72"/>
</g>
<defs>
<clipPath id="clip0_1671_13578">
<rect width="75" height="100" fill="white" transform="translate(12)"/>
</clipPath>
</defs>
</svg>
