<svg width="96" height="180" viewBox="0 0 96 180" fill="none" xmlns="http://www.w3.org/2000/svg">
<g clip-path="url(#clip0_1090_30694)">
<path d="M5.94446 43.1883C2.65637 45.0852 0.000610352 49.7644 0.000610352 53.5584L0.316773 175.723C0.316773 179.517 3.03577 181.035 6.32385 179.138L79.7367 136.772C83.0248 134.875 85.6806 130.259 85.6806 126.465L85.3644 4.23708C85.3644 0.443136 82.6454 -1.07444 79.3573 0.82253L5.94446 43.1883Z" fill="#F3CCE9"/>
<path d="M77.5241 11.0037L26.2426 40.47C26.2426 40.47 25.9896 40.6597 25.9264 40.7861L9.92859 50.0181C9.10657 50.5239 7.90515 52.5474 7.90515 53.4959L8.22131 168.958L75.8168 129.944C76.6388 129.438 77.8402 127.415 77.8402 126.466L77.5241 11.0037Z" fill="#F3CCE9"/>
<path d="M39.3347 124.377C39.0186 124.504 38.6392 124.63 38.323 124.694C38.6392 124.567 39.0186 124.504 39.3347 124.377Z" fill="white"/>
<path d="M38.3193 124.696C36.9282 125.138 35.5371 125.454 34.2725 125.518C35.6003 125.391 36.9282 125.075 38.3193 124.696Z" fill="white"/>
<path d="M29.6527 125.265C28.5145 125.012 27.4396 124.633 26.4911 124.127C27.5028 124.633 28.5778 125.012 29.6527 125.265Z" fill="white"/>
<path d="M33.833 125.516C32.6316 125.579 31.4934 125.516 30.4185 125.39C31.4934 125.579 32.6316 125.643 33.833 125.516Z" fill="white"/>
<path d="M30.414 125.39C30.414 125.39 29.9076 125.326 29.5911 125.263C29.8443 125.263 30.0975 125.326 30.414 125.39Z" fill="white"/>
<path d="M43.7615 122.42C42.2439 123.242 40.7263 123.874 39.3352 124.38C40.7896 123.874 42.2439 123.305 43.7615 122.42Z" fill="white"/>
<path d="M53.8778 114.578C53.8778 114.578 53.3714 115.084 53.1182 115.337C53.3714 115.084 53.6246 114.831 53.8778 114.578Z" fill="white"/>
<path d="M53.1146 115.337C51.85 116.601 50.4589 117.803 49.0677 118.878C50.4589 117.803 51.7867 116.601 53.1146 115.337Z" fill="white"/>
<path d="M49.0749 118.879C49.0749 118.879 48.5052 119.259 48.252 119.512C48.5052 119.322 48.8217 119.132 49.0749 118.879Z" fill="white"/>
<path d="M57.6661 66.0142C57.6661 67.0891 57.097 68.2905 56.3383 69.239C56.8441 69.239 57.2235 69.6816 57.2235 70.4404C57.2235 70.5037 57.2235 70.6301 57.2235 70.7566C57.2235 72.5271 54.7575 78.2813 53.8722 80.3047V85.4265C53.8722 88.6514 52.4178 92.2556 50.1415 95.354C50.5209 98.1995 50.9635 100.413 50.9635 100.413C52.0385 99.97 54.1251 99.5274 56.7809 99.5274C58.8676 99.5274 61.2072 99.8435 63.7365 100.602C66.7084 94.5952 68.5421 88.2088 68.5421 82.3281C68.5421 73.0962 64.2423 67.2788 57.6029 66.0774L57.6661 66.0142Z" fill="#F0E8E2"/>
<path d="M57.6631 110.278C58.8645 108.761 59.9395 107.18 60.9512 105.599C59.9395 107.243 58.8645 108.824 57.6631 110.278Z" fill="white"/>
<path d="M60.9612 105.6C60.9612 105.6 61.3406 104.967 61.5303 104.651C61.3406 104.967 61.1509 105.283 60.9612 105.6Z" fill="white"/>
<path d="M63.8052 100.477C63.1096 101.868 62.3508 103.322 61.5288 104.65C62.3508 103.259 63.1729 101.868 63.8684 100.477H63.8052Z" fill="white"/>
<path d="M53.8723 114.576C55.137 113.249 56.4016 111.857 57.603 110.403C56.4648 111.857 55.2002 113.249 53.8723 114.576Z" fill="white"/>
<path d="M26.4299 124.126C26.4299 124.126 26.1134 123.936 25.9235 123.809C26.1134 123.936 26.24 123.999 26.4299 124.126Z" fill="white"/>
<path d="M25.9906 123.872C25.1686 123.366 24.3466 122.797 23.651 122.102C24.3466 122.797 25.1686 123.43 25.9906 123.872Z" fill="white"/>
<path d="M23.6513 122.04C23.6513 122.04 23.3348 121.724 23.1449 121.534C23.3348 121.724 23.4614 121.85 23.6513 122.04Z" fill="white"/>
<path d="M36.5465 108.003C36.8627 106.422 37.1788 104.272 37.3685 102.185C35.1554 101.49 33.7643 99.4663 33.7643 96.3047V91.499C32.6893 91.6887 31.6144 90.8667 30.7924 86.4404C30.7081 86.2297 30.6237 85.9978 30.5394 85.7449C30.5394 85.7449 30.3497 85.3022 30.3497 84.9861C30.3497 84.2905 30.7291 83.4685 31.235 82.8362C30.4762 82.773 29.9703 82.2039 29.9071 81.1921C23.3942 89.5388 19.0944 99.9722 19.0944 109.141C19.0944 114.326 20.4855 118.373 22.8883 121.218C25.4176 117.993 27.7572 115.401 29.8439 113.441C32.6893 110.722 35.0289 109.014 36.5465 108.003Z" fill="#F0E8E2"/>
<path d="M22.8236 121.279C22.8236 121.279 23.0131 121.469 23.1394 121.595C23.0131 121.469 22.9499 121.342 22.8868 121.216L22.8236 121.279Z" fill="white"/>
<path d="M44.2659 122.167H44.1394L43.76 122.419L43.3806 122.609H43.2542L43.0012 122.799H42.8748L42.5586 122.989L42.116 123.178L41.7366 123.368H41.6101L41.3572 123.558H41.2307L40.8513 123.747L40.4719 123.874H40.3455L40.0925 124H39.9661L39.6499 124.19L39.2705 124.316H39.144L38.8911 124.443H38.7647L38.5117 124.569L38.0691 124.696L37.6897 124.822H37.5632L37.3103 124.949H37.1838C37.1838 124.949 36.7412 125.075 36.4883 125.138H36.0457L35.7295 125.265H35.3501L35.0339 125.391H34.2752L33.959 125.518H31.1768C31.1768 125.518 30.6709 125.518 30.4812 125.455H30.165L29.8489 125.328H29.5327L29.2166 125.202H28.9004C28.9004 125.202 28.4578 125.012 28.2681 124.949H27.9519C27.9519 124.949 27.5093 124.696 27.3196 124.633L27.0667 124.506L26.7505 124.38C26.7505 124.38 26.3711 124.19 26.1814 124.127L25.9285 124C25.9285 124 25.5491 123.811 25.3594 123.684L25.1064 123.494C25.1064 123.494 24.7271 123.241 24.6006 123.115L24.3477 122.925L24.0947 122.736C24.0947 122.736 23.7786 122.483 23.6521 122.356L23.3992 122.167C23.3992 122.167 23.083 121.85 22.9565 121.724L22.7668 121.471L22.5771 121.218C25.1064 117.93 27.5093 115.337 29.5959 113.377C33.5796 114.136 38.3853 113.251 43.5703 110.469C48.376 107.876 52.8023 104.019 56.5962 99.4028C58.6829 99.4028 61.0857 99.6558 63.615 100.478C63.4885 100.731 63.3621 101.047 63.1724 101.3L62.9827 101.679L62.7298 102.122C62.4768 102.564 62.2239 103.007 62.0342 103.386L61.7813 103.766L61.5283 104.208C61.3386 104.525 61.1489 104.841 61.0225 105.094L60.7695 105.473L60.5166 105.853L60.2637 106.232C60.074 106.548 59.8843 106.801 59.6946 107.054L59.4417 107.433L59.1887 107.813L58.9358 108.192C58.6829 108.508 58.4932 108.761 58.3667 109.014L58.1138 109.394V109.52L57.8609 109.773V109.899L57.5447 110.152C57.2918 110.469 57.1021 110.721 56.9124 110.974V111.101L56.5962 111.354L56.4697 111.48L56.28 111.733L56.1536 111.86L55.9639 112.113L55.5845 112.555L55.2683 112.871L55.1419 112.998L54.9522 113.188L54.8257 113.314L54.636 113.504L54.5095 113.63L54.3198 113.883H54.2566L53.9404 114.326L53.6243 114.642L53.4978 114.768L53.3081 114.958L53.1817 115.084L52.992 115.274L52.8655 115.401L52.6758 115.59H52.5493L52.2332 115.97L51.917 116.286L51.7905 116.412L51.6008 116.602L51.4744 116.729L51.2847 116.918L51.1582 117.045L50.9053 117.234L50.4627 117.614L50.1465 117.867L50.02 117.993L49.8303 118.183L49.7039 118.309L49.5142 118.499L49.3877 118.625L49.1348 118.815L48.6921 119.131H48.5657L48.3128 119.384L48.1863 119.511L47.9966 119.7L47.8701 119.827L47.6172 120.017H47.4907L47.2378 120.333L46.8584 120.649H46.7319L46.479 120.902H46.3525L46.0996 121.155H45.9732L45.7202 121.408H45.5938L45.2776 121.661L44.8982 121.914H44.7717L44.5188 122.103H44.3923L44.1394 122.293H44.0129L43.76 122.483L44.2659 122.167Z" fill="#151F72"/>
<path d="M50.2031 95.2283C50.5825 98.0737 50.9619 100.16 51.0251 100.287C48.3062 105.915 46.346 107.938 43.8799 110.404C39.8962 111.922 36.5449 108.128 36.5449 108.001C36.8611 106.42 37.1772 104.271 37.3669 102.184C39.1375 102.69 41.3506 102.374 43.8167 101.046C46.2827 99.7178 48.4959 97.6311 50.2031 95.2283Z" fill="#91190F"/>
<path d="M49.8862 68.9238C51.5303 68.0386 52.7949 69.1135 52.7949 71.3267V80.116C52.7949 80.116 52.7949 80.6851 52.7949 81.0012L52.3523 82.7085C51.9729 84.1628 51.0244 85.6804 49.7598 86.7554L48.4319 87.8936L47.926 87.1348C47.4834 86.4392 46.5349 86.376 45.5232 86.9451L42.1086 88.7788C41.0969 89.3479 40.1484 90.4229 39.7058 91.561L39.2 92.8889L37.9353 93.1418C36.7339 93.3948 35.7222 92.8889 35.406 91.8772L34.9634 90.739C34.9634 90.739 34.9634 90.4861 34.9634 90.2964V81.0012C34.9634 78.7881 36.2913 76.322 37.9353 75.4368L49.9495 68.9238H49.8862Z" fill="#91190F"/>
<path d="M52.7378 80.9363L52.9907 79.9878C52.9907 79.9878 53.5598 80.1775 53.876 80.1775V85.3626C53.876 88.5874 52.4216 92.1917 50.1453 95.29C48.3748 97.6929 46.1616 99.7795 43.7588 101.107C41.356 102.435 39.0164 102.751 37.3091 102.246C35.0959 101.55 33.7048 99.5266 33.7048 96.365V91.1799C34.0842 90.8638 34.4004 90.4211 34.6533 90.0418L34.9063 90.8005L35.3489 91.9387C35.7283 93.0137 36.6768 93.4563 37.8782 93.2034L39.1428 92.9504L39.6487 91.6226C40.0913 90.4844 41.0398 89.3462 42.0515 88.8403L45.4661 87.0066C46.4778 86.4375 47.4263 86.5007 47.8689 87.1963L48.3748 87.9551L49.7026 86.8169C50.9041 85.7419 51.9158 84.2244 52.2952 82.77L52.7378 81.0627V80.9363ZM46.2249 90.4844C46.794 89.8521 47.0469 89.03 46.794 88.5242L46.6043 88.0815C46.6043 88.0815 46.3513 87.8919 46.0984 88.0183L41.4824 90.5476C41.4824 90.5476 41.0398 90.927 40.9766 91.1799L40.7869 91.8123C40.5972 92.5711 40.7869 93.0769 41.356 93.1401H42.4309C42.8735 93.2034 43.3162 93.1401 43.7588 92.824C44.2014 92.5078 44.7073 92.1917 45.0867 91.749L46.1616 90.5476" fill="#2D2B2A"/>
<path d="M57.673 65.9525C57.673 67.0274 57.1039 68.2288 56.3451 69.1773C56.851 69.1773 57.2304 69.62 57.2304 70.3787C57.2304 70.442 57.2304 70.5684 57.2304 70.6949C57.2304 72.4654 54.7643 78.2196 53.879 80.243C53.5629 80.243 53.2467 80.1798 52.9938 79.9901L52.7409 80.9386C52.7409 80.9386 52.7409 80.3695 52.7409 80.0533V71.264C52.7409 69.0509 51.413 68.0391 49.8322 68.8612L37.818 75.3741C36.2372 76.2594 34.8461 78.7254 34.8461 80.9386V90.2337C34.8461 90.2337 34.8461 90.4867 34.8461 90.6764L34.5931 89.9176C34.3402 90.3602 34.0241 90.7396 33.7079 91.0558V91.4351C32.6329 91.6248 31.4948 90.8028 30.736 86.3766C30.6517 86.1658 30.5673 85.9339 30.483 85.681C30.483 85.681 30.2933 85.2384 30.2933 84.9222C30.2933 84.2267 30.6727 83.4046 31.1786 82.7723C30.4198 82.7091 29.9139 82.14 29.8507 81.1283C29.8507 81.1283 29.8507 81.065 29.8507 81.0018C29.8507 79.5475 30.8624 77.8402 32.1271 76.9549C31.9374 76.6388 31.8109 76.2594 31.8109 75.8167C31.8109 74.2992 32.9491 72.4654 34.3402 71.7066C34.8461 71.4537 35.3519 71.3272 35.7313 71.3905C35.7313 69.367 37.1857 67.0274 39.0194 66.0157C39.7782 65.5731 40.537 65.5098 41.1061 65.6995C41.6119 64.3717 42.6237 63.1702 43.7618 62.5379C44.9 61.9056 45.9118 62.0953 46.4176 62.8541C46.9867 62.0321 47.6823 61.3365 48.5043 60.9571C50.338 59.9454 51.7924 60.7674 51.7924 62.6644C52.1718 62.2218 52.6776 61.7791 53.1835 61.5262C54.5746 60.7674 55.7128 61.3365 55.7128 62.8541C55.7128 63.3599 55.5863 63.8658 55.3966 64.3717C56.6613 63.8658 57.673 64.4981 57.673 65.9525Z" fill="#2D2B2A"/>
<path d="M45.1528 91.6865L46.2278 90.4851C46.7968 89.8528 47.0498 89.0308 46.7968 88.5249L46.6072 88.0823C46.6072 88.0823 46.3542 87.8926 46.1013 88.0191L41.4853 90.5484C41.4853 90.5484 41.0427 90.9278 40.9795 91.1807L40.7898 91.813C40.6001 92.5718 40.7898 93.0777 41.3589 93.1409H42.4338C42.8764 93.2041 43.3191 93.1409 43.7617 92.8247C44.2043 92.5718 44.7102 92.1924 45.0896 91.7498L45.1528 91.6865Z" fill="#91190F"/>
<path d="M44.3209 110.216H44.1945L43.8151 110.469L43.3724 110.721H43.246L42.8034 110.974L42.3607 111.164H42.2343L41.7916 111.417L41.349 111.607H41.2858L40.8431 111.86L40.4005 112.049H40.3373L39.8947 112.239L39.452 112.429C39.452 112.429 39.1359 112.555 38.9462 112.618L38.5035 112.745C38.5035 112.745 38.1874 112.871 37.9977 112.871L37.5551 112.998L37.1124 113.124C34.4567 113.82 31.9274 113.883 29.7142 113.44C32.5597 110.721 34.8993 109.014 36.4169 108.002C36.4169 108.129 39.7682 111.923 43.7518 110.405C46.2179 107.939 48.1781 105.916 50.8971 100.288C51.9721 99.8455 54.0587 99.4028 56.7145 99.4028C55.766 100.541 54.7543 101.679 53.7426 102.691C53.3632 103.07 52.9838 103.45 52.6044 103.829C52.3514 104.082 52.0985 104.335 51.7824 104.588C51.4662 104.841 51.2133 105.094 50.9603 105.347L50.5809 105.663C50.5809 105.663 50.0118 106.105 49.7589 106.358L49.3163 106.675L48.8737 106.991L48.4943 107.307C48.4943 107.307 47.9884 107.75 47.6722 107.939H47.609L47.2296 108.255L46.787 108.572H46.7238L46.4076 108.824H46.3444C46.3444 108.824 45.8385 109.204 45.5223 109.394H45.3959L45.0797 109.646H45.0165L44.6371 109.899H44.5739L44.2577 110.152L44.3209 110.216Z" fill="#151F72"/>
<path d="M71.2013 121.344L85.7448 112.491L85.6815 91.3716L95.2296 85.8704L95.2929 117.929L71.2013 132.346V121.344Z" fill="#FF5805"/>
<path d="M73.2889 128.679L93.2072 116.728V89.4114L87.7692 92.573V113.693L73.2889 122.482V128.679Z" fill="#FF5805"/>
<path d="M15.4254 130.323L24.9735 124.822V148.597L44.2594 136.646V148.154L15.4886 164.784L15.4254 130.323Z" fill="#FF5805"/>
<path d="M17.5763 161.622L42.1737 146.51V140.376L22.9511 152.327L22.8878 128.425L17.5131 131.523L17.5763 161.622Z" fill="#FF5805"/>
<path d="M15.4254 61.3997L41.0346 47.1091V58.1116L24.9735 66.9641V88.4632L15.4254 93.9644V61.3997Z" fill="#FF5805"/>
<path d="M17.5148 90.3601L22.8895 87.2617V65.7627L38.9506 56.9102V50.6501L17.4515 62.6011L17.5148 80.5591V90.3601Z" fill="#FF5805"/>
<path d="M85.4943 30.6057L71.9625 38.4465V27.4441L95.0424 14.1653L95.1056 48.2476L85.4943 53.7488V30.6057Z" fill="#FF5805"/>
<path d="M86.7561 50.3984L92.1309 47.2368L92.0676 17.9602L73.1611 28.8994V35.0962L86.6929 27.2554L86.7561 50.3984Z" fill="#FF5805"/>
</g>
<defs>
<clipPath id="clip0_1090_30694">
<rect width="95.2913" height="179.96" fill="white"/>
</clipPath>
</defs>
</svg>
