<svg width="96" height="96" viewBox="0 0 96 96" fill="none" xmlns="http://www.w3.org/2000/svg">
<g clip-path="url(#clip0_1671_13467)">
<path d="M29.5579 27.9593C28.1432 28.7921 27.0005 30.8462 27.0005 32.5117L27.1365 86.1407C27.1365 87.8062 28.3064 88.4723 29.7211 87.6396L61.3077 69.0416C62.7225 68.2088 63.8651 66.1825 63.8651 64.517L63.7291 10.8603C63.7291 9.19477 62.5592 8.52857 61.1445 9.36132L29.5579 27.9593Z" fill="#FBD1EE"/>
<path d="M60.3556 13.8305L38.2912 26.7659C38.2912 26.7659 38.1824 26.8491 38.1552 26.9046L31.272 30.9573C30.9183 31.1794 30.4014 32.0677 30.4014 32.4841L30.5374 83.1706L59.621 66.0438C59.9747 65.8217 60.4916 64.9335 60.4916 64.5171L60.3556 13.8305Z" fill="#FBD1EE"/>
<path d="M43.9246 63.6002C43.7885 63.6557 43.6253 63.7113 43.4893 63.739C43.6253 63.6835 43.7885 63.6557 43.9246 63.6002Z" fill="white"/>
<path d="M43.4873 63.7398C42.8888 63.9341 42.2902 64.0729 41.7461 64.1007C42.3174 64.0452 42.8888 63.9064 43.4873 63.7398Z" fill="white"/>
<path d="M39.7588 63.9899C39.269 63.8789 38.8065 63.7123 38.3984 63.4902C38.8337 63.7123 39.2962 63.8789 39.7588 63.9899Z" fill="white"/>
<path d="M41.557 64.1001C41.0401 64.1278 40.5504 64.1001 40.0879 64.0446C40.5504 64.1278 41.0401 64.1556 41.557 64.1001Z" fill="white"/>
<path d="M40.086 64.0446C40.086 64.0446 39.8681 64.0168 39.7319 63.989C39.8409 63.989 39.9498 64.0168 40.086 64.0446Z" fill="white"/>
<path d="M45.8288 62.7408C45.1758 63.1016 44.5229 63.3792 43.9243 63.6013C44.5501 63.3792 45.1758 63.1294 45.8288 62.7408Z" fill="white"/>
<path d="M50.1818 59.2982C50.1818 59.2982 49.9639 59.5205 49.855 59.6316C49.9639 59.5205 50.0729 59.4093 50.1818 59.2982Z" fill="white"/>
<path d="M49.853 59.6315C49.3089 60.1866 48.7104 60.714 48.1118 61.1859C48.7104 60.714 49.2817 60.1866 49.853 59.6315Z" fill="white"/>
<path d="M48.1153 61.1863C48.1153 61.1863 47.8702 61.353 47.7612 61.4642C47.8702 61.3808 48.0064 61.2974 48.1153 61.1863Z" fill="white"/>
<path d="M51.8118 37.9794C51.8118 38.4513 51.5669 38.9787 51.2404 39.3951C51.4581 39.3951 51.6213 39.5894 51.6213 39.9225C51.6213 39.9503 51.6213 40.0058 51.6213 40.0613C51.6213 40.8385 50.5603 43.3645 50.1794 44.2528V46.5012C50.1794 47.9169 49.5536 49.4991 48.5742 50.8593C48.7375 52.1084 48.9279 53.0799 48.9279 53.0799C49.3904 52.8856 50.2882 52.6913 51.4309 52.6913C52.3287 52.6913 53.3353 52.8301 54.4236 53.1632C55.7023 50.5262 56.4913 47.7226 56.4913 45.1411C56.4913 41.0884 54.6412 38.5346 51.7846 38.0072L51.8118 37.9794Z" fill="#F0E8E2"/>
<path d="M51.8105 57.4109C52.3275 56.7447 52.79 56.0508 53.2253 55.3568C52.79 56.0785 52.3275 56.7725 51.8105 57.4109Z" fill="white"/>
<path d="M53.2295 55.357C53.2295 55.357 53.3927 55.0794 53.4743 54.9406C53.3927 55.0794 53.3111 55.2182 53.2295 55.357Z" fill="white"/>
<path d="M54.4531 53.108C54.1538 53.7187 53.8273 54.3572 53.4736 54.9401C53.8273 54.3294 54.181 53.7187 54.4803 53.108H54.4531Z" fill="white"/>
<path d="M50.1792 59.2977C50.7233 58.7148 51.2675 58.1041 51.7844 57.4656C51.2947 58.1041 50.7505 58.7148 50.1792 59.2977Z" fill="white"/>
<path d="M38.3717 63.4896C38.3717 63.4896 38.2355 63.4062 38.1538 63.3506C38.2355 63.4062 38.29 63.434 38.3717 63.4896Z" fill="white"/>
<path d="M38.1829 63.3784C37.8292 63.1564 37.4755 62.9065 37.1763 62.6012C37.4755 62.9065 37.8292 63.1841 38.1829 63.3784Z" fill="white"/>
<path d="M37.1764 62.5743C37.1764 62.5743 37.0402 62.4354 36.9585 62.352C37.0402 62.4354 37.0947 62.4909 37.1764 62.5743Z" fill="white"/>
<path d="M42.7248 56.412C42.8608 55.718 42.9968 54.7742 43.0785 53.8582C42.1262 53.5529 41.5277 52.6646 41.5277 51.2767V49.1671C41.0652 49.2503 40.6027 48.8895 40.249 46.9464C40.2127 46.8539 40.1764 46.7521 40.1402 46.6411C40.1402 46.6411 40.0586 46.4467 40.0586 46.308C40.0586 46.0026 40.2218 45.6418 40.4394 45.3642C40.113 45.3364 39.8953 45.0866 39.8681 44.6425C37.0659 48.3065 35.2158 52.8867 35.2158 56.9116C35.2158 59.1878 35.8144 60.9643 36.8482 62.2134C37.9365 60.7978 38.9431 59.6597 39.8409 58.7992C41.0652 57.6056 42.0718 56.8561 42.7248 56.412Z" fill="#F0E8E2"/>
<path d="M36.8203 62.2401C36.8203 62.2401 36.9018 62.3233 36.9562 62.3788C36.9018 62.3233 36.8747 62.2679 36.8475 62.2124L36.8203 62.2401Z" fill="white"/>
<path d="M46.0461 62.6296H45.9917L45.8285 62.7407L45.6653 62.8239H45.6108L45.502 62.9072H45.4476L45.3116 62.9905L45.1211 63.0738L44.9579 63.157H44.9035L44.7946 63.2403H44.7402L44.577 63.3236L44.4138 63.3791H44.3593L44.2505 63.4346H44.1961L44.0601 63.5179L43.8968 63.5734H43.8424L43.7336 63.6289H43.6792L43.5704 63.6844L43.3799 63.74L43.2167 63.7955H43.1623L43.0534 63.851H42.999C42.999 63.851 42.8086 63.9065 42.6998 63.9343H42.5093L42.3733 63.9898H42.21L42.074 64.0453H41.7475L41.6115 64.1008H40.4144C40.4144 64.1008 40.1968 64.1008 40.1152 64.0731H39.9791L39.8431 64.0175H39.7071L39.571 63.962H39.435C39.435 63.962 39.2445 63.8788 39.1629 63.851H39.0269C39.0269 63.851 38.8365 63.74 38.7548 63.7122L38.646 63.6567L38.51 63.6012C38.51 63.6012 38.3467 63.5179 38.2651 63.4901L38.1563 63.4346C38.1563 63.4346 37.9931 63.3513 37.9114 63.2958L37.8026 63.2126C37.8026 63.2126 37.6394 63.1015 37.585 63.046L37.4761 62.9627L37.3673 62.8795C37.3673 62.8795 37.2313 62.7684 37.1769 62.7129L37.068 62.6296C37.068 62.6296 36.932 62.4908 36.8776 62.4353L36.796 62.3243L36.7144 62.2133C37.8026 60.7698 38.8365 59.6317 39.7343 58.7712C41.4483 59.1043 43.5159 58.7157 45.7469 57.4944C47.8146 56.3563 49.719 54.663 51.3514 52.6367C52.2492 52.6367 53.283 52.7477 54.3713 53.1085C54.3169 53.2196 54.2625 53.3584 54.1808 53.4694L54.0992 53.636L53.9904 53.8303C53.8816 54.0246 53.7728 54.2189 53.6911 54.3854L53.5823 54.552L53.4735 54.7463C53.3919 54.8851 53.3102 55.0239 53.2558 55.1349L53.147 55.3015L53.0382 55.468L52.9294 55.6345C52.8477 55.7733 52.7661 55.8844 52.6845 55.9954L52.5757 56.162L52.4668 56.3285L52.358 56.4951C52.2492 56.6338 52.1676 56.7449 52.1132 56.8559L52.0043 57.0225V57.078L51.8955 57.189V57.2445L51.7595 57.3556C51.6507 57.4944 51.569 57.6054 51.4874 57.7164V57.7719L51.3514 57.883L51.297 57.9385L51.2154 58.0495L51.1609 58.105L51.0793 58.2161L50.9161 58.4104L50.78 58.5492L50.7256 58.6047L50.644 58.688L50.5896 58.7435L50.508 58.8268L50.4536 58.8823L50.372 58.9933H50.3447L50.2087 59.1876L50.0727 59.3264L50.0183 59.3819L49.9367 59.4652L49.8822 59.5207L49.8006 59.604L49.7462 59.6595L49.6646 59.7428H49.6102L49.4741 59.9093L49.3381 60.0481L49.2837 60.1036L49.2021 60.1869L49.1477 60.2424L49.066 60.3257L49.0116 60.3812L48.9028 60.4645L48.7124 60.631L48.5763 60.7421L48.5219 60.7976L48.4403 60.8809L48.3859 60.9364L48.3043 61.0197L48.2499 61.0752L48.141 61.1584L47.9506 61.2972H47.8962L47.7873 61.4083L47.7329 61.4638L47.6513 61.5471L47.5969 61.6026L47.4881 61.6858H47.4337L47.3248 61.8246L47.1616 61.9634H47.1072L46.9984 62.0745H46.944L46.8351 62.1855H46.7807L46.6719 62.2965H46.6175L46.4814 62.4076L46.3182 62.5186H46.2638L46.155 62.6019H46.1006L45.9917 62.6851H45.9373L45.8285 62.7684L46.0461 62.6296Z" fill="#151F72"/>
<path d="M48.6007 50.8041C48.7639 52.0532 48.9272 52.9692 48.9544 53.0247C47.7845 55.4952 46.9411 56.3835 45.8801 57.4661C44.1661 58.1323 42.7241 56.4668 42.7241 56.4112C42.8602 55.7173 42.9962 54.7735 43.0778 53.8575C43.8396 54.0796 44.7918 53.9408 45.8529 53.3578C46.9139 52.7749 47.8661 51.8589 48.6007 50.8041Z" fill="#91190F"/>
<path d="M48.4642 39.2567C49.1715 38.8681 49.7157 39.34 49.7157 40.3115V44.1699C49.7157 44.1699 49.7157 44.4198 49.7157 44.5585L49.5252 45.308C49.362 45.9465 48.9539 46.6127 48.4097 47.0845L47.8384 47.5842L47.6208 47.2511C47.4303 46.9458 47.0222 46.918 46.5869 47.1678L45.1178 47.9728C44.6825 48.2226 44.2744 48.6945 44.0839 49.1942L43.8663 49.7771L43.3222 49.8881C42.8052 49.9992 42.3699 49.7771 42.2339 49.333L42.0435 48.8333C42.0435 48.8333 42.0435 48.7223 42.0435 48.639V44.5585C42.0435 43.587 42.6148 42.5044 43.3222 42.1158L48.4914 39.2567H48.4642Z" fill="#91190F"/>
<path d="M49.6911 44.53L49.7999 44.1136C49.7999 44.1136 50.0448 44.1969 50.1808 44.1969V46.4731C50.1808 47.8888 49.555 49.471 48.5756 50.8311C47.8138 51.886 46.8616 52.802 45.8278 53.3849C44.7939 53.9678 43.7873 54.1066 43.0527 53.8846C42.1005 53.5792 41.502 52.6909 41.502 51.303V49.0269C41.6652 48.8881 41.8012 48.6938 41.91 48.5272L42.0189 48.8603L42.2093 49.36C42.3726 49.8318 42.7807 50.0262 43.2976 49.9151L43.8417 49.8041L44.0594 49.2212C44.2498 48.7215 44.6579 48.2219 45.0932 47.9998L46.5623 47.1948C46.9976 46.945 47.4057 46.9727 47.5962 47.2781L47.8138 47.6112L48.3852 47.1115C48.9021 46.6396 49.3374 45.9735 49.5006 45.335L49.6911 44.5855V44.53ZM46.8888 48.7215C47.1337 48.4439 47.2425 48.0831 47.1337 47.861L47.0521 47.6667C47.0521 47.6667 46.9432 47.5834 46.8344 47.6389L44.8483 48.7493C44.8483 48.7493 44.6579 48.9158 44.6307 49.0269L44.5491 49.3044C44.4674 49.6375 44.5491 49.8596 44.7939 49.8874H45.2564C45.4469 49.9151 45.6373 49.8874 45.8278 49.7486C46.0182 49.6098 46.2359 49.471 46.3991 49.2767L46.8616 48.7493" fill="#2D2B2A"/>
<path d="M51.8146 37.9524C51.8146 38.4243 51.5697 38.9517 51.2432 39.3681C51.4609 39.3681 51.6241 39.5624 51.6241 39.8955C51.6241 39.9232 51.6241 39.9788 51.6241 40.0343C51.6241 40.8115 50.5631 43.3375 50.1822 44.2258C50.0461 44.2258 49.9101 44.198 49.8013 44.1147L49.6925 44.5311C49.6925 44.5311 49.6925 44.2813 49.6925 44.1425V40.2841C49.6925 39.3126 49.1211 38.8684 48.441 39.2293L43.2718 42.0884C42.5916 42.477 41.9931 43.5596 41.9931 44.5311V48.6116C41.9931 48.6116 41.9931 48.7226 41.9931 48.8059L41.8842 48.4728C41.7754 48.6671 41.6394 48.8336 41.5033 48.9724V49.139C41.0408 49.2223 40.5511 48.8614 40.2246 46.9183C40.1884 46.8258 40.1521 46.724 40.1158 46.613C40.1158 46.613 40.0342 46.4187 40.0342 46.2799C40.0342 45.9745 40.1974 45.6137 40.4151 45.3361C40.0886 45.3083 39.871 45.0585 39.8438 44.6144C39.8438 44.6144 39.8438 44.5866 39.8438 44.5589C39.8438 43.9204 40.2791 43.171 40.8232 42.7823C40.7416 42.6436 40.6871 42.477 40.6871 42.2827C40.6871 41.6165 41.1769 40.8115 41.7754 40.4784C41.9931 40.3674 42.2107 40.3119 42.3739 40.3396C42.3739 39.4514 42.9997 38.4243 43.7887 37.9802C44.1152 37.7859 44.4416 37.7581 44.6865 37.8414C44.9041 37.2584 45.3394 36.731 45.8292 36.4535C46.3189 36.1759 46.7542 36.2592 46.9718 36.5922C47.2167 36.2314 47.5159 35.9261 47.8696 35.7595C48.6586 35.3154 49.2844 35.6762 49.2844 36.509C49.4476 36.3147 49.6653 36.1204 49.8829 36.0093C50.4814 35.6762 50.9712 35.9261 50.9712 36.5922C50.9712 36.8143 50.9167 37.0364 50.8351 37.2584C51.3793 37.0364 51.8146 37.314 51.8146 37.9524Z" fill="#2D2B2A"/>
<path d="M46.4279 49.2492L46.8904 48.7218C47.1352 48.4443 47.2441 48.0834 47.1352 47.8613L47.0536 47.667C47.0536 47.667 46.9448 47.5837 46.836 47.6393L44.8499 48.7496C44.8499 48.7496 44.6595 48.9161 44.6322 49.0272L44.5506 49.3048C44.469 49.6379 44.5506 49.8599 44.7955 49.8877H45.258C45.4484 49.9154 45.6389 49.8877 45.8293 49.7489C46.0198 49.6379 46.2374 49.4713 46.4007 49.277L46.4279 49.2492Z" fill="#91190F"/>
<path d="M46.0698 57.3833H46.0154L45.8522 57.4944L45.6617 57.6054H45.6073L45.4169 57.7164L45.2264 57.7997H45.172L44.9816 57.9107L44.7911 57.994H44.7639L44.5735 58.105L44.383 58.1883H44.3558L44.1654 58.2716L43.9749 58.3549C43.9749 58.3549 43.8389 58.4104 43.7573 58.4381L43.5668 58.4936C43.5668 58.4936 43.4308 58.5492 43.3492 58.5492L43.1587 58.6047L42.9683 58.6602C41.8256 58.9655 40.7374 58.9933 39.7852 58.799C41.0094 57.6054 42.0161 56.8559 42.669 56.4118C42.669 56.4673 44.111 58.1328 45.825 57.4666C46.886 56.384 47.7294 55.4958 48.8993 53.0253C49.3618 52.831 50.2596 52.6367 51.4023 52.6367C50.9942 53.1363 50.5589 53.636 50.1236 54.0801C49.9603 54.2466 49.7971 54.4132 49.6339 54.5797C49.525 54.6908 49.4162 54.8018 49.2802 54.9128C49.1441 55.0239 49.0353 55.1349 48.9265 55.2459L48.7633 55.3847C48.7633 55.3847 48.5184 55.579 48.4096 55.6901L48.2191 55.8289L48.0287 55.9676L47.8654 56.1064C47.8654 56.1064 47.6478 56.3007 47.5118 56.384H47.4846L47.3213 56.5228L47.1309 56.6616H47.1037L46.9676 56.7726H46.9404C46.9404 56.7726 46.7228 56.9392 46.5867 57.0225H46.5323L46.3963 57.1335H46.3691L46.2059 57.2445H46.1787L46.0426 57.3556L46.0698 57.3833Z" fill="#151F72"/>
<path d="M57.6353 62.2684L63.8927 58.3823L63.8655 49.111L67.9737 46.696L68.0009 60.7695L57.6353 67.0984V62.2684Z" fill="#FF5805"/>
<path d="M58.5337 65.4884L67.1037 60.2421V48.2505L64.764 49.6385V58.9097L58.5337 62.7681V65.4884Z" fill="#FF5805"/>
<path d="M33.6372 66.2101L37.7454 63.7952V74.2323L46.0433 68.986V74.038L33.6644 81.3384L33.6372 66.2101Z" fill="#FF5805"/>
<path d="M34.5629 79.9502L45.1461 73.3159V70.6234L36.8754 75.8697L36.8482 65.3771L34.5356 66.7372L34.5629 79.9502Z" fill="#FF5805"/>
<path d="M33.6372 35.9538L44.6558 29.6804V34.5104L37.7454 38.3965V47.8343L33.6372 50.2493V35.9538Z" fill="#FF5805"/>
<path d="M34.536 48.6671L36.8485 47.307V37.8691L43.759 33.983V31.2349L34.5088 36.4812L34.536 44.3646V48.6671Z" fill="#FF5805"/>
<path d="M63.7851 22.4356L57.9629 25.8776V21.0477L67.8932 15.2184L67.9204 30.1801L63.7851 32.5951V22.4356Z" fill="#FF5805"/>
<path d="M64.3279 31.1244L66.6404 29.7365L66.6132 16.8844L58.4785 21.6866V24.4069L64.3007 20.9649L64.3279 31.1244Z" fill="#FF5805"/>
</g>
<defs>
<clipPath id="clip0_1671_13467">
<rect width="41" height="79" fill="white" transform="translate(27 9)"/>
</clipPath>
</defs>
</svg>
