<svg width="99" height="165" viewBox="0 0 99 165" fill="none" xmlns="http://www.w3.org/2000/svg">
<g clip-path="url(#clip0_1090_30746)">
<path d="M29.6526 9.04273L18.1443 2.40332L29.6526 9.04273Z" fill="#151F72"/>
<path d="M69.9949 28.5188L20.5471 0.000976562L18.6501 1.89795L18.1443 2.40381L29.6526 9.04322L69.1096 31.8069C69.6155 32.1231 70.1214 32.5657 70.6272 33.0083C72.7771 34.9685 74.2947 38.0669 74.2947 40.7227L73.9785 146.005V146.574C73.9785 147.143 73.8521 147.522 73.7256 147.965C73.4727 148.787 73.1565 149.419 72.5874 149.799C73.2197 149.672 73.7256 149.356 74.1682 148.787C73.9785 149.103 73.7256 149.419 73.4727 149.609L76.002 148.155C76.9505 147.586 77.5196 146.447 77.5196 144.803L77.8357 41.9873C77.8357 37.0552 74.3579 30.9849 70.0581 28.5188H69.9949Z" fill="#91190F"/>
<path d="M70.5694 33.0084C70.0635 32.5658 69.6209 32.1232 69.0518 31.807L29.658 9.04332L21.6275 4.42735C19.604 3.22593 17.0115 3.60533 15.3674 5.24937L1.20337 19.3502L0.254883 20.2987L0.00195312 103.892C0.00195312 104.714 0.128418 105.599 0.381348 106.421C1.14014 109.014 2.97388 111.606 5.12378 112.808L44.1382 135.318L68.6724 149.483C69.1782 149.799 69.6841 149.862 70.1267 149.988C71.012 150.178 71.834 150.178 72.4663 149.735C73.0354 149.356 73.4148 148.724 73.6045 147.902C73.731 147.459 73.8575 147.08 73.8575 146.511V145.942L74.1736 40.6595C74.1736 38.0038 72.5928 34.9054 70.5061 32.9452L70.5694 33.0084Z" fill="#F8CEEB"/>
<path d="M39.3315 100.793C42.3034 100.857 43.568 97.695 42.1769 93.7114C41.1652 90.8027 39.0785 88.2734 36.8654 87.072C36.0434 86.6294 35.1581 86.3132 34.3361 86.3132C31.3642 86.25 30.0995 89.4116 31.4907 93.3952C32.5024 96.3039 34.589 98.8332 36.8022 100.035C37.6242 100.477 38.5095 100.793 39.3315 100.793Z" fill="#91190F"/>
<path d="M34.2749 82.8356C32.8206 81.9503 31.8721 80.3063 31.8088 78.599L31.1765 61.1469C31.0501 57.1 35.4131 54.4442 38.9541 56.4677L40.5349 57.3529C42.2422 58.3646 43.2539 60.1984 43.1274 62.1586L42.1157 78.7255C41.8628 82.6459 37.563 84.9223 34.2117 82.8356H34.2749Z" fill="#91190F"/>
<path d="M20.5588 0.000732422L2.91699 18.9705L17.0178 27.1275C17.5869 27.4436 17.0178 29.0244 17.5869 29.0877C18.0928 29.1509 19.4207 28.2656 20.1162 27.6965C21.0015 27.001 22.0764 26.6848 22.4558 25.3569C22.5823 24.8511 22.772 24.4085 22.772 23.8394V1.20215L20.5588 0.000732422Z" fill="#F8CEEB"/>
<path d="M19.0933 1.51685L0.186768 20.3601L14.2876 28.5171C14.8567 28.8333 15.4258 29.023 15.9316 29.1494C16.4375 29.2127 16.9434 29.2127 17.386 29.1494C18.5242 28.9597 19.3462 28.1377 19.7256 26.8098C19.8521 26.304 20.0418 25.8613 20.0418 25.2922V0.441895L19.03 1.51685H19.0933Z" fill="#91190F"/>
<mask id="mask0_1090_30746" style="mask-type:luminance" maskUnits="userSpaceOnUse" x="50" y="109" width="49" height="56">
<path d="M93.2056 109.393H55.2661C52.4025 109.393 50.0811 111.714 50.0811 114.578V158.84C50.0811 161.704 52.4025 164.025 55.2661 164.025H93.2056C96.0692 164.025 98.3906 161.704 98.3906 158.84V114.578C98.3906 111.714 96.0692 109.393 93.2056 109.393Z" fill="white"/>
</mask>
<g mask="url(#mask0_1090_30746)">
<path d="M65.3843 113.817C72.1502 126.148 78.916 138.541 85.6819 150.935C86.1245 151.757 85.9348 152.958 85.0496 154.223C83.1526 156.879 78.8528 159.029 75.6279 158.965C73.9839 158.965 72.9089 158.333 72.5295 157.448C66.7754 144.548 61.0845 131.712 55.3303 118.813C55.7097 119.698 56.595 120.33 57.9861 120.52C60.6418 120.899 63.9932 119.255 65.2578 116.853C65.8901 115.714 65.8901 114.576 65.4475 113.754L65.3843 113.817Z" fill="#FF5805"/>
<path d="M62.6659 112.3C65.2584 112.49 66.4598 114.513 65.132 116.853C63.8673 119.192 60.516 120.9 57.8602 120.52C55.2045 120.141 54.256 117.991 55.6471 115.841C57.0382 113.628 60.0734 112.11 62.6659 112.363V112.3Z" fill="#91190F"/>
</g>
<path d="M67.4674 79.8002C74.1068 99.8449 69.6173 116.222 57.4767 119.51C55.8326 119.953 54.0621 120.143 52.1652 120.079C50.2682 120.079 48.308 119.7 46.3478 119.131C43.7553 118.372 41.0995 117.234 38.4437 115.716C26.4296 108.824 14.9845 94.4069 9.5465 77.9665C2.02184 55.2028 8.85094 37.1815 24.8488 37.6874C29.275 37.8139 33.9542 39.3947 38.5702 42.0504C50.5211 48.9428 62.0294 63.3598 67.4674 79.8002ZM49.0035 110.531C61.2706 110.911 66.5822 97.0627 60.7648 79.6105C56.5914 67.0273 47.8021 55.9616 38.5702 50.6501C35.0292 48.6266 31.4249 47.4252 28.0104 47.2987C15.7433 46.9193 10.4318 60.7672 16.2491 78.2194C20.4225 90.8659 29.2118 101.868 38.4437 107.18C41.9847 109.203 45.589 110.405 49.0035 110.531Z" fill="#FF5805"/>
<path d="M76.8945 74.2988C71.4566 57.8583 59.9483 43.5046 47.9973 36.549C43.3814 33.8932 38.7022 32.3124 34.2759 32.186C30.7981 32.0595 27.7629 32.8183 25.2336 34.3359L15.812 39.8371C18.3413 38.3827 21.3765 37.6239 24.8543 37.6872C29.2805 37.8136 33.9597 39.3945 38.5757 42.0502C50.5266 48.9426 62.0349 63.3596 67.4729 79.8C73.4168 97.6315 70.4448 112.554 61.2129 117.992L70.6345 112.491C79.8665 107.116 82.8384 92.1935 76.8945 74.2988Z" fill="#91190F"/>
</g>
<defs>
<clipPath id="clip0_1090_30746">
<rect width="98.3897" height="164.025" fill="white"/>
</clipPath>
</defs>
</svg>
