<svg width="96" height="96" viewBox="0 0 96 96" fill="none" xmlns="http://www.w3.org/2000/svg">
<g clip-path="url(#clip0_1671_13399)">
<path d="M52.1621 63.988C41.8724 57.9928 27.3921 57.3895 19.3101 62.6306C11.228 67.8718 12.575 77.2606 21.9667 83.6707L32.3311 90.2693L67.8023 73.7917L52.1995 63.9503H52.1246L52.1621 63.988Z" fill="#2D2B2A"/>
<path d="M42.5421 96.0008L32.3647 90.2318C32.3647 90.2318 32.3647 79.0707 32.5892 74.6591C32.7015 72.2459 37.9773 39.4038 60.0532 36.425C64.2439 35.8594 73.4484 42.7596 73.4484 42.7596" fill="#91190F"/>
<path d="M42.5421 96.0008L32.3647 90.2318C32.3647 90.2318 32.3647 79.0707 32.5892 74.6591C32.7015 72.2459 37.9773 39.4038 60.0532 36.425C64.2439 35.8594 73.4484 42.7596 73.4484 42.7596" fill="#2D2B2A"/>
<path d="M81.0469 54.9011C80.8598 43.2122 72.7777 38.4989 62.75 44.3057C52.5726 50.1879 44.1164 64.4785 43.3681 76.5822L42.5449 95.9632L80.7101 73.6788L81.1591 54.8257H81.0843L81.0469 54.9011Z" fill="#7FCBF5"/>
<path d="M60.1666 29.75L45.125 38.4225L45.5366 20.512L60.5782 11.8019L60.1666 29.75Z" fill="#FBD1EE"/>
<path d="M70.3824 35.5958L55.3408 44.306L55.7524 26.3578L70.794 17.6477L70.3824 35.5958Z" fill="#7FCBF5"/>
<path d="M60.5782 11.8019L70.793 17.6463L55.7514 26.3565L55.3398 44.3046L45.125 38.4225L45.5366 20.512L60.5782 11.8019Z" fill="#2D2B2A"/>
<path d="M69.4517 53.9197L76.7105 49.4704L76.6731 38.8372L81.4625 36.0847L81.4999 52.1852L69.4517 59.4625V53.9197Z" fill="#FF5805"/>
<path d="M70.4971 57.6148L80.45 51.6195L80.4125 37.8944L77.7185 39.4404V50.0735L70.4971 54.4852V57.6148Z" fill="#FF5805"/>
<path d="M45.5405 55.2015L50.3299 52.4113V64.3642L59.946 58.3312V63.9117L45.5779 72.7726L45.5405 55.2015Z" fill="#FF5805"/>
<path d="M46.6234 70.9249L58.8961 63.346V60.2164L49.28 66.2493V54.2211L46.5859 55.8047L46.6234 70.9249Z" fill="#FF5805"/>
<path d="M45.5405 20.5133L58.3371 13.3492V18.8543L50.3299 23.3036V34.1253L45.5779 36.8778L45.5405 20.5133Z" fill="#FF5805"/>
<path d="M46.5859 35.0688L49.28 33.5228V22.7011L57.2872 18.2518V15.1222L46.5859 21.1175V30.167V35.0688Z" fill="#FF5805"/>
<path d="M76.6716 8.29595L69.9365 12.2174V6.71229L81.4235 0.000579834L81.4609 17.1569L76.709 19.9095L76.6716 8.29595Z" fill="#FF5805"/>
<path d="M77.7178 18.0994L80.4492 16.5535L80.4118 1.81036L70.9453 7.31547L70.9827 10.4074L77.7178 6.48593V18.0994Z" fill="#FF5805"/>
</g>
<defs>
<clipPath id="clip0_1671_13399">
<rect width="67.5" height="96" fill="white" transform="translate(14)"/>
</clipPath>
</defs>
</svg>
