<svg width="100" height="100" viewBox="0 0 100 100" fill="none" xmlns="http://www.w3.org/2000/svg">
<g clip-path="url(#clip0_1671_13369)">
<path d="M40.7688 25.9669C36.2056 23.3284 29.7836 23.0629 26.1992 25.3695C22.6149 27.6761 23.2122 31.8081 27.3775 34.6291L31.9741 37.5332L47.7056 30.2814L40.7854 25.9503H40.7523L40.7688 25.9669Z" fill="black"/>
<path d="M36.5039 40.0552L31.9902 37.5164C31.9902 37.5164 31.9902 32.6045 32.0898 30.663C32.1396 29.6009 34.4794 15.1472 44.2698 13.8363C46.1286 13.5874 50.211 16.6242 50.211 16.6242" fill="black"/>
<path d="M36.5039 40.0552L31.9902 37.5164C31.9902 37.5164 31.9902 32.6045 32.0898 30.663C32.1396 29.6009 34.4794 15.1472 44.2698 13.8363C46.1286 13.5874 50.211 16.6242 50.211 16.6242" fill="black"/>
<path d="M53.5801 21.9678C53.4973 16.8236 49.9128 14.7493 45.465 17.3048C40.9517 19.8935 37.2011 26.1828 36.8694 31.5096L36.5044 40.0388L53.4305 30.2318L53.6297 21.9346H53.5966L53.5801 21.9678Z" fill="#7FCBF5"/>
<path d="M44.3192 10.8986L37.6479 14.7154L37.8306 6.833L44.5019 2.99976L44.3192 10.8986Z" fill="black"/>
<path d="M48.8498 13.4714L42.1792 17.3047L42.3613 9.40575L49.0325 5.57251L48.8498 13.4714Z" fill="#7FCBF5"/>
<path d="M44.5019 2.99976L49.0318 5.57183L42.3611 9.40513L42.1784 17.304L37.6479 14.7154L37.8306 6.833L44.5019 2.99976Z" fill="black"/>
<path d="M85.1395 46.7872C80.5759 44.1486 74.1535 43.8831 70.5696 46.1894C66.9851 48.4964 67.5822 52.6284 71.7473 55.4497L76.344 58.3531L92.0756 51.1019L85.156 46.7706H85.1223L85.1395 46.7872Z" fill="black"/>
<path d="M80.8728 60.8755L76.3589 58.3368C76.3589 58.3368 76.3589 53.425 76.4582 51.4835C76.5085 50.4211 78.8479 35.9676 88.639 34.6566C90.4971 34.4076 94.5795 37.4444 94.5795 37.4444" fill="black"/>
<path d="M80.8728 60.8755L76.3589 58.3368C76.3589 58.3368 76.3589 53.425 76.4582 51.4835C76.5085 50.4211 78.8479 35.9676 88.639 34.6566C90.4971 34.4076 94.5795 37.4444 94.5795 37.4444" fill="black"/>
<path d="M97.9504 42.7879C97.8677 37.6434 94.2831 35.5691 89.836 38.1246C85.3221 40.7133 81.572 47.0026 81.2398 52.3295L80.875 60.8589L97.8008 51.0519L98.0001 42.7541H97.967L97.9504 42.7879Z" fill="#FF5805"/>
<path d="M88.6897 31.7187L82.019 35.5354L82.2011 27.6531L88.8724 23.8198L88.6897 31.7187Z" fill="black"/>
<path d="M93.22 34.2912L86.5493 38.1245L86.732 30.2256L93.4027 26.3923L93.22 34.2912Z" fill="#FF5805"/>
<path d="M88.8724 23.8198L93.4022 26.392L86.7316 30.2252L86.5489 38.1241L82.019 35.5354L82.2011 27.6531L88.8724 23.8198Z" fill="black"/>
<path d="M17.9248 66.6144C13.3614 63.9764 6.93938 63.7103 3.35503 66.0173C-0.229382 68.3236 0.368041 72.4556 4.5332 75.2768L9.12982 78.1809L24.8613 70.9291L17.9414 66.5978H17.9082L17.9248 66.6144Z" fill="black"/>
<path d="M13.6586 80.703L9.14502 78.1643C9.14502 78.1643 9.14502 73.2526 9.24458 71.311C9.29436 70.2486 11.6341 55.7952 21.4248 54.4839C23.2833 54.235 27.3656 57.272 27.3656 57.272" fill="black"/>
<path d="M13.6586 80.703L9.14502 78.1643C9.14502 78.1643 9.14502 73.2526 9.24458 71.311C9.29436 70.2486 11.6341 55.7952 21.4248 54.4839C23.2833 54.235 27.3656 57.272 27.3656 57.272" fill="black"/>
<path d="M30.7347 62.6154C30.6518 57.4713 27.0674 55.3967 22.6201 57.9525C18.1065 60.5415 14.3561 66.8302 14.0243 72.157L13.6592 80.6864L30.5854 70.8794L30.7845 62.5823H30.7513L30.7347 62.6154Z" fill="#FF5805"/>
<path d="M21.4751 51.5466L14.8042 55.3628L14.9868 47.4808L21.6577 43.6473L21.4751 51.5466Z" fill="black"/>
<path d="M26.0059 54.1192L19.335 57.9526L19.5175 50.0534L26.1884 46.2206L26.0059 54.1192Z" fill="#FF5805"/>
<path d="M21.6577 43.6473L26.1879 46.2197L19.517 50.0525L19.3344 57.9518L14.8042 55.3628L14.9868 47.4808L21.6577 43.6473Z" fill="black"/>
<path d="M52.9403 77.2115C45.558 72.9427 35.1683 72.513 29.3695 76.2446C23.5707 79.9762 24.5372 86.6615 31.2756 91.2251L38.7123 95.9229L64.1624 84.1916L52.9677 77.1842H52.9136L52.9403 77.2115Z" fill="black"/>
<path d="M46.0391 100.003L38.7363 95.8962C38.7363 95.8962 38.7363 87.9498 38.8974 84.8083C38.9782 83.0902 42.7633 59.707 58.6031 57.5866C61.6096 57.1837 68.2141 62.0967 68.2141 62.0967" fill="black"/>
<path d="M46.0391 100.003L38.7363 95.8962C38.7363 95.8962 38.7363 87.9498 38.8974 84.8083C38.9782 83.0902 42.7633 59.707 58.6031 57.5866C61.6096 57.1837 68.2141 62.0967 68.2141 62.0967" fill="black"/>
<path d="M73.6657 70.7413C73.5314 62.4194 67.7328 59.0634 60.5383 63.198C53.2355 67.386 47.1684 77.5603 46.6318 86.1782L46.041 99.9772L73.4244 84.1113L73.7465 70.6879H73.6924L73.6657 70.7413Z" fill="#7FCBF5"/>
<path d="M58.6831 52.8338L47.8906 59.0086L48.186 46.2568L58.9784 40.0553L58.6831 52.8338Z" fill="black"/>
<path d="M66.0141 56.9963L55.2217 63.1978L55.5171 50.4193L66.3089 44.2178L66.0141 56.9963Z" fill="#7FCBF5"/>
<path d="M58.9784 40.0553L66.3073 44.2166L55.5148 50.4181L55.2201 63.1966L47.8906 59.0086L48.186 46.2568L58.9784 40.0553Z" fill="black"/>
</g>
<defs>
<clipPath id="clip0_1671_13369">
<rect width="100" height="100" fill="white"/>
</clipPath>
</defs>
</svg>
