<svg width="20" height="24" viewBox="0 0 20 24" fill="none" xmlns="http://www.w3.org/2000/svg">
<path opacity="0.4" d="M9.49983 0C13.0841 0 15.9894 2.90479 15.9894 6.4883C15.9894 10.0718 13.0841 12.9766 9.49983 12.9766C5.91561 12.9766 3.01025 10.0718 3.01025 6.4883C3.01025 2.90479 5.91561 0 9.49983 0Z" fill="#5E646E"/>
<path d="M1.47086 20.2288H17.5251C18.0342 20.2288 18.5313 20.1561 19 20.0227C18.3413 15.3646 14.3409 11.7811 9.50001 11.7811C4.65909 11.7811 0.658656 15.3646 0 20.0227C0.468737 20.1561 0.961716 20.2288 1.4749 20.2288" fill="#001096"/>
<path d="M14.9238 19.0148L13.8262 17.931C13.8262 17.931 13.6341 17.7956 13.5244 17.7956C13.4146 17.7956 13.3049 17.8498 13.2226 17.931C13.1402 18.0123 13.0854 18.1207 13.0854 18.2291C13.0854 18.3374 13.1402 18.4458 13.2226 18.5271L14.622 19.9089C14.622 19.9089 14.814 20.0443 14.9238 20.0443C15.0335 20.0443 15.1433 19.9901 15.2256 19.9089L17.8323 17.335C17.8323 17.335 17.9421 17.1724 17.9421 17.0369C17.9421 16.9015 17.9146 16.8202 17.8323 16.7389C17.75 16.6576 17.6677 16.6305 17.5579 16.6305C17.4482 16.6305 17.3384 16.6576 17.2835 16.7389L15.0061 18.9877L14.9238 19.0148ZM15.5 24C15.5 24 15.4177 24 15.3902 24C15.3628 24 15.3354 24 15.3079 24C14.0457 23.6207 13.0305 22.8621 12.2073 21.7241C11.4116 20.5862 11 19.3128 11 17.931V15.2217C11 15.0591 11.0549 14.8965 11.1646 14.734C11.2744 14.5714 11.4116 14.4901 11.5488 14.4089L15.1982 13.0542C15.1982 13.0542 15.3902 13 15.5 13C15.6098 13 15.6921 13 15.8018 13.0542L19.4512 14.4089C19.6159 14.4631 19.753 14.5714 19.8354 14.734C19.9177 14.8965 20 15.032 20 15.2217V17.931C20 19.3128 19.5884 20.5862 18.7927 21.7241C17.9969 22.8621 16.9543 23.6478 15.6921 24H15.5Z" fill="#2CC05C"/>
</svg>
