<svg width="96" height="96" viewBox="0 0 96 96" fill="none" xmlns="http://www.w3.org/2000/svg">
<g clip-path="url(#clip0_1671_13517)">
<path d="M60.477 91.0425L60.6582 28.3223C60.6582 26.3646 59.281 24.0081 57.6139 23.0292L19.9592 1.27653C19.1256 0.768964 18.3283 0.732709 17.7847 1.059L16.2625 1.92911C15.7189 2.2554 15.3565 2.90798 15.3565 3.88685L15.1753 66.607C15.1753 68.5648 16.5525 70.9213 18.2196 71.9002L55.8743 93.6529C56.9978 94.3054 58.23 93.7616 58.0488 93.8704L59.571 93.0003C60.1146 92.674 60.477 91.9852 60.477 91.0425ZM58.9549 91.9852C58.9549 92.4565 58.8824 92.8553 58.7374 93.1453C58.8824 92.819 58.9549 92.4202 58.9549 91.9852Z" fill="#7FCBF5"/>
<path d="M61.999 90.1725L62.1802 27.4523C62.1802 25.4946 60.803 23.1381 59.1359 22.1592L21.4811 0.442786C20.6476 -0.0647766 19.8503 -0.101031 19.3066 0.225259L17.7845 1.09537C17.2409 1.42166 16.8785 2.07424 16.8785 3.05311L16.6973 65.7733C16.6973 67.731 18.0744 70.0876 19.7415 71.0664L57.3963 92.8191C58.5198 93.4717 59.752 92.9279 59.5708 93.0366L61.0929 92.1665C61.6366 91.8402 61.999 91.1514 61.999 90.2088V90.1725ZM60.4768 91.1152C60.4768 91.5865 60.4044 91.9853 60.2594 92.2753C60.4044 91.949 60.4768 91.5502 60.4768 91.1152Z" fill="#7FCBF5"/>
<path d="M30.863 48.9515C29.812 48.879 28.8335 48.9877 27.9274 49.2778C29.8482 52.2869 32.1677 54.861 34.6683 56.7462C33.1462 54.2446 31.8415 51.5981 30.863 48.9515ZM42.7501 55.8036C41.7716 57.3263 40.4669 58.4864 38.9086 59.1752C41.4092 60.1904 43.7287 60.2991 45.6857 59.5015C44.7797 58.1601 43.8011 56.9275 42.7501 55.8036ZM36.0817 50.5104C34.8133 49.8579 33.5448 49.3865 32.3126 49.1328C33.2912 51.7068 34.5596 54.2446 36.0817 56.6374V50.5104ZM37.6039 51.3805V57.5075C39.126 56.8912 40.3945 55.8398 41.373 54.3897C40.1408 53.1933 38.8723 52.2144 37.6039 51.3805ZM28.761 38.619L23.216 35.4286C23.361 39.2353 24.6657 43.4408 26.8764 47.4651C27.9274 47.1025 29.0509 46.9937 30.2469 47.0663C29.3408 44.1296 28.8335 41.3018 28.7247 38.6552M36.0817 42.897L30.2106 39.4891C30.2831 41.9181 30.7543 44.4922 31.624 47.2113C33.0737 47.4651 34.5596 48.0089 36.0817 48.8065V42.897ZM43.475 47.1388L37.6039 43.7308V49.6403C39.0898 50.5829 40.5757 51.7793 42.0253 53.1933C42.8951 51.4893 43.3663 49.4591 43.475 47.1388ZM50.5058 51.1993L44.9609 48.0089C44.8521 50.5467 44.3448 52.7945 43.4025 54.6434C44.5985 55.9486 45.7219 57.3988 46.7729 58.9577C49.0199 57.5075 50.3246 54.8247 50.5058 51.1993ZM32.0227 31.0055C30.9355 32.8183 30.3194 35.1385 30.2106 37.7851L36.0817 41.193V34.2684C34.7046 33.3983 33.3636 32.3107 32.0227 31.0418M41.6991 36.625C40.3582 36.3349 38.981 35.8274 37.6039 35.1023V42.0269L43.475 45.4348C43.3663 42.6795 42.7864 39.6341 41.6991 36.625ZM27.42 25.6761C24.9194 26.9813 23.3973 29.8817 23.1798 33.7246L28.7247 36.915C28.8335 34.0509 29.4858 31.5494 30.6093 29.5916C29.4858 28.3952 28.3986 27.0538 27.42 25.6761ZM46.338 36.5887C45.3595 36.8425 44.2723 36.915 43.1488 36.8062C44.2723 40.0691 44.8884 43.2958 44.9971 46.2687L50.542 49.4591C50.3608 45.3986 48.8749 40.758 46.3743 36.5525M36.1905 27.3801C34.8858 27.8877 33.7623 28.7215 32.82 29.8454C33.9073 30.8605 35.0307 31.7306 36.1542 32.4557V27.3801M37.6764 28.2502V33.3258C38.7998 33.9059 39.8871 34.3409 41.0106 34.5947C40.1045 32.4195 38.981 30.2804 37.6764 28.2502ZM34.8133 25.6761C32.5663 24.806 30.4643 24.5885 28.6523 25.1323C29.522 26.2925 30.4281 27.4163 31.4066 28.4315C32.3489 27.1988 33.5086 26.2562 34.8495 25.6399M39.0898 28.0689C40.4307 30.2079 41.5904 32.492 42.4965 34.776C43.475 34.8848 44.381 34.8485 45.2508 34.631C43.4387 31.9844 41.3367 29.7366 39.0898 28.0327M28.3986 68.9277C28.3986 68.9277 28.0724 68.6014 28.0724 68.3839V66.4624C28.0724 66.2811 28.2174 66.1724 28.3986 66.2811L45.2508 75.9973C45.2508 75.9973 45.577 76.3236 45.577 76.5411V78.4626C45.577 78.6439 45.432 78.7526 45.2508 78.6439L28.3986 68.9277ZM28.3986 63.9971C28.3986 63.9971 28.0724 63.6708 28.0724 63.4533V61.5318C28.0724 61.3505 28.2174 61.2417 28.3986 61.3505L45.2508 71.0667C45.2508 71.0667 45.577 71.393 45.577 71.6105V73.532C45.577 73.7133 45.432 73.822 45.2508 73.7133L28.3986 63.9971ZM33.5811 18.1715C33.5811 18.1715 33.2549 17.8452 33.2549 17.6276V15.7062C33.2549 15.5249 33.3999 15.4161 33.5811 15.5249L42.9314 20.7455C42.9314 20.7455 43.2575 21.0718 43.2575 21.2893V23.2108C43.2575 23.3921 43.1126 23.5009 42.9314 23.3921L33.5811 18.1715ZM36.8428 59.7916C36.8428 59.7916 36.7341 59.7191 36.6616 59.6828H36.5891C32.7475 57.3263 29.0872 53.4833 26.3328 48.8065C23.361 43.7671 21.7302 38.3652 21.7302 33.5796C21.7302 28.5765 23.6509 24.8785 26.9489 23.4646C29.667 22.3045 33.1099 22.7758 36.6978 24.7698H36.7703C36.7703 24.7698 36.879 24.8785 36.9515 24.9148C37.024 24.951 37.0603 24.9873 37.1327 25.0236H37.2052C40.7931 27.1988 44.236 30.7155 46.9179 34.9935C50.2159 40.2504 52.0642 46.1236 52.0642 51.1268C52.0642 55.8761 50.3971 59.3928 47.389 60.988C44.5985 62.4744 40.9381 62.1119 37.0965 59.9366H37.024C37.024 59.9366 36.9153 59.8278 36.8428 59.7916ZM55.797 23.9722L18.251 2.29202C16.5476 1.31315 15.1705 2.11074 15.1705 4.03223L14.9893 66.6074C14.9893 68.5651 16.3302 70.9217 18.0335 71.9006L55.5796 93.5807C57.2829 94.5596 58.6601 93.762 58.6601 91.8405L58.8413 29.3016C58.8413 27.3438 57.4641 24.9873 55.797 24.0084" fill="#2D2B2A"/>
<path d="M34.6679 56.7468C32.1672 54.8616 29.8478 52.2875 27.927 49.2784C28.833 48.9884 29.8115 48.8796 30.8625 48.9521C31.8411 51.6349 33.1457 54.2815 34.6679 56.7468ZM38.8719 59.1759C40.4303 58.4508 41.7349 57.3269 42.7135 55.8042C43.7645 56.9281 44.743 58.197 45.649 59.5022C43.692 60.2998 41.3725 60.1547 38.8719 59.1759ZM36.0088 56.6018C34.4867 54.2453 33.2182 51.6712 32.2397 49.0971C33.4719 49.3509 34.7404 49.786 36.0088 50.4748V56.6018ZM37.4947 57.4719V51.3449C38.7994 52.1788 40.0678 53.1576 41.3 54.354C40.3215 55.8042 39.0168 56.8556 37.4947 57.4719ZM26.8035 47.4294C24.5928 43.4414 23.2881 39.2359 23.1431 35.393L28.6881 38.5833C28.7605 41.2299 29.2679 44.0578 30.2102 46.9944C29.0142 46.9219 27.8545 47.0669 26.8397 47.3932M31.6236 47.1394C30.7901 44.4566 30.3189 41.8462 30.2102 39.4172L36.0813 42.8251V48.7346C34.5592 47.937 33.0733 47.3932 31.6236 47.1394ZM42.0249 53.1576C40.5752 51.7437 39.0893 50.5473 37.5672 49.6047V43.6952L43.4745 47.1031C43.3658 49.4234 42.8947 51.4537 42.0249 53.1576ZM46.7725 58.9221C45.7215 57.3632 44.598 55.913 43.402 54.6078C44.3443 52.7226 44.8517 50.5111 44.9604 47.9732L50.5054 51.1636C50.3241 54.7891 49.0195 57.4719 46.7725 58.9221ZM30.2102 37.7132C30.3189 35.0667 30.935 32.7464 32.0223 30.9337C33.3632 32.2026 34.7404 33.2902 36.1175 34.1603V41.0849L30.2102 37.677M37.5672 41.9188V34.9942C38.9806 35.7192 40.3215 36.2268 41.6987 36.5168C42.7497 39.5622 43.3658 42.5713 43.4745 45.3267L37.6034 41.9188M23.2156 33.6165C23.4331 29.7735 24.9189 26.8732 27.4558 25.568C28.4344 26.9819 29.5216 28.2871 30.6451 29.4835C29.5216 31.4412 28.8693 33.9428 28.7605 36.8069L23.2156 33.6165ZM44.9967 46.1968C44.8879 43.2239 44.2718 39.9973 43.1484 36.7344C44.2718 36.8431 45.3591 36.7344 46.3376 36.5168C48.8382 40.7224 50.3241 45.3629 50.5054 49.4234L44.9604 46.233M36.1175 32.4563C34.994 31.7313 33.8706 30.8611 32.7833 29.846C33.6894 28.7221 34.8128 27.8883 36.1538 27.3807V32.4563M37.6397 33.3265V28.2508C38.9444 30.2811 40.0678 32.4201 40.9739 34.5954C39.8866 34.3416 38.7632 33.9065 37.6397 33.3265ZM31.3699 28.4684C30.3914 27.4532 29.4854 26.3293 28.6156 25.1692C30.4276 24.6254 32.5659 24.8067 34.7766 25.713C33.4357 26.3293 32.2759 27.272 31.3337 28.5046M42.3873 34.8854C41.4813 32.6014 40.3215 30.3173 38.9806 28.1783C41.2276 29.8823 43.3296 32.1301 45.1416 34.7766C44.2718 34.9579 43.3658 34.9942 42.3873 34.9216M36.8786 25.0604C36.8786 25.0604 36.7699 24.9879 36.6974 24.9517H36.6249C33.037 22.9214 29.5941 22.4501 26.876 23.6103C23.578 25.0242 21.6572 28.7221 21.6572 33.7253C21.6572 38.7284 23.2881 43.8765 26.2599 48.9521C29.0142 53.6289 32.6746 57.4719 36.5162 59.7922H36.5887C36.5887 59.7922 36.6974 59.9372 36.7699 59.9735C36.8424 60.0097 36.8786 60.046 36.9511 60.0822H37.0236C40.8651 62.2575 44.5255 62.6563 47.3161 61.1699C50.3241 59.5747 51.955 56.058 51.9913 51.3087C51.9913 46.3055 50.1429 40.4323 46.845 35.2117C44.1631 30.9337 40.7202 27.3807 37.1323 25.2417H37.0598C37.0598 25.2417 36.9511 25.1329 36.8786 25.0967" fill="#7FCBF5"/>
<path d="M63.9203 60.4446H63.884C56.9987 60.4446 51.417 66.0283 51.417 72.9161V72.9524C51.417 79.8402 56.9987 85.4239 63.884 85.4239H63.9203C70.8056 85.4239 76.3873 79.8402 76.3873 72.9524V72.9161C76.3873 66.0283 70.8056 60.4446 63.9203 60.4446Z" fill="#2CC05C"/>
<path d="M61.7048 79.3686L54.9639 72.8065L56.9209 70.7763L61.7048 75.3806L70.8376 66.5345L72.7946 68.5647L61.741 79.3686H61.7048Z" fill="#E5E7E7"/>
</g>
<defs>
<clipPath id="clip0_1671_13517">
<rect width="72" height="94" fill="white" transform="translate(15)"/>
</clipPath>
</defs>
</svg>
