<svg width="182" height="108" viewBox="0 0 182 108" fill="none" xmlns="http://www.w3.org/2000/svg">
<path d="M16 22C16 17.5817 19.5817 14 24 14H68C72.4183 14 76 17.5817 76 22V78C76 82.4183 72.4183 86 68 86H24C19.5817 86 16 82.4183 16 78V22Z" fill="#F6C969"/>
<g filter="url(#filter0_d_1281_4127)">
<path d="M63.2773 85.2852C63.2773 85.2852 51.8402 85.9594 46.3872 85.9594C40.9342 85.9594 29.4971 85.2852 29.4971 85.2852C29.4971 85.2852 36.2956 82.7305 37.0392 81.0628C37.4287 80.2467 37.5703 77.2307 37.6411 74.4275C37.712 71.6244 37.6411 69.1406 37.6411 69.1406L46.3872 69.2826L55.1332 69.1406C55.1332 69.1406 55.027 76.0242 55.4165 79.4306C55.4417 79.9874 55.5491 80.5375 55.7352 81.0628C56.5142 82.7305 63.2773 85.2852 63.2773 85.2852Z" fill="url(#paint0_linear_1281_4127)"/>
<path d="M32.8615 49.6963C32.8615 49.6963 30.4891 48.8447 29.8163 49.1995C29.1436 49.5544 28.1167 51.3285 28.2584 53.422C28.2938 53.9542 28.7187 56.6154 30.5245 57.9282C31.0557 58.2831 31.5514 60.0572 32.7199 60.3056C33.8884 60.554 34.0654 59.7733 34.0654 59.7733L32.8615 49.6963Z" fill="url(#paint1_linear_1281_4127)"/>
<path style="mix-blend-mode:multiply" opacity="0.6" d="M33.4278 54.4864C33.4278 54.4864 32.1176 50.3704 30.3472 50.9382C28.5767 51.5059 29.1787 54.4154 29.1787 54.4154C29.1787 54.4154 29.5682 51.7188 31.1616 52.6058C32.0114 53.0316 30.6305 53.8122 30.6305 54.9122C30.6305 56.0121 31.5865 57.325 31.9052 56.6154C32.2239 55.9057 32.4363 53.3865 33.4278 54.4864Z" fill="url(#paint2_linear_1281_4127)"/>
<path style="mix-blend-mode:multiply" opacity="0.6" d="M31.9047 56.6153C32.188 55.6573 32.4004 54.2025 32.9316 54.3444C33.0784 54.3943 33.2088 54.4835 33.3087 54.6024C33.4085 54.7212 33.4741 54.8651 33.4981 55.0186L33.3565 53.9896C33.3565 53.9896 32.365 52.3929 31.1611 53.7767" fill="url(#paint3_linear_1281_4127)"/>
<path d="M60.2674 49.6963C60.2674 49.6963 62.6752 48.8447 63.348 49.1995C64.0208 49.5544 65.0122 51.3285 64.906 53.422C64.8706 53.9542 64.4102 56.6154 62.6044 57.9282C62.1087 58.2831 61.5775 60.0572 60.409 60.3056C59.2405 60.554 59.0635 59.7733 59.0635 59.7733L60.2674 49.6963Z" fill="url(#paint4_linear_1281_4127)"/>
<path style="mix-blend-mode:multiply" opacity="0.6" d="M59.7012 54.4864C59.7012 54.4864 61.0113 50.3704 62.7817 50.9382C64.5522 51.5059 63.9857 54.4154 63.9857 54.4154C63.9857 54.4154 63.5962 51.7188 61.9673 52.6058C61.1175 53.0316 62.4985 53.8122 62.4985 54.9122C62.4985 56.0121 61.5424 57.325 61.2238 56.6154C60.9051 55.9057 60.6926 53.3865 59.7012 54.4864Z" fill="url(#paint5_linear_1281_4127)"/>
<path style="mix-blend-mode:multiply" opacity="0.6" d="M61.223 59.8442C61.0814 60.0571 59.9483 60.6603 59.3463 60.0571C58.7444 59.4539 59.5588 55.5863 59.6296 55.0186C59.6296 55.0186 59.4172 59.241 59.7004 59.4184C59.2755 59.17 61.1876 59.8797 61.223 59.8442Z" fill="url(#paint6_linear_1281_4127)"/>
<path d="M67.7741 86.4563H25L34.1355 82.9435L35.1624 79.5726C35.8917 79.4983 36.6252 79.4746 37.3578 79.5017L37.1453 80.7436C37.1453 80.7436 39.4823 83.1564 46.3871 83.1564C52.5128 83.1564 55.6288 80.7436 55.6288 80.7436L55.4518 79.6436V79.5017C56.1843 79.4746 56.9179 79.4983 57.6471 79.5726L58.674 82.9435L67.7741 86.4563Z" fill="#151F72"/>
<path style="mix-blend-mode:multiply" opacity="0.6" d="M35.1626 79.5725C34.9855 80.1402 39.6241 84.1852 46.2456 84.1852C50.4894 84.1902 54.5675 82.5352 57.6119 79.5725L58.6388 82.9434C58.6388 82.9434 51.2029 85.9594 45.8915 85.9594C40.5802 85.9594 34.1357 82.9434 34.1357 82.9434L35.1626 79.5725Z" fill="url(#paint7_linear_1281_4127)"/>
<path d="M58.9573 39.1579C54.0355 31.2808 40.7925 31.1034 34.8438 37.8096C28.8951 44.5158 32.3651 47.6027 32.613 57.6088C32.8255 63.3215 33.0733 67.0827 36.7913 70.2406C37.8913 71.1512 39.0377 72.0039 40.226 72.7954C45.8914 77.0533 54.0709 73.3276 56.2308 70.0987C60.1258 67.1182 59.7363 64.1021 60.1966 57.7153C60.5507 49.4478 63.1002 45.5802 58.9573 39.1579Z" fill="url(#paint8_linear_1281_4127)"/>
</g>
<g filter="url(#filter1_d_1281_4127)">
<mask id="path-12-inside-1_1281_4127" fill="white">
<path fill-rule="evenodd" clip-rule="evenodd" d="M18 0C10.268 0 4 6.26801 4 14V86C4 93.732 10.268 100 18 100H164C171.732 100 178 93.732 178 86V14C178 6.26801 171.732 0 164 0H18ZM24.4286 15.2778C20.0103 15.2778 16.4286 18.8596 16.4286 23.2778V76.7223C16.4286 81.1405 20.0103 84.7223 24.4286 84.7223H66.4286C70.8468 84.7223 74.4286 81.1405 74.4286 76.7223V23.2778C74.4286 18.8596 70.8468 15.2778 66.4286 15.2778H24.4286Z"/>
</mask>
<path fill-rule="evenodd" clip-rule="evenodd" d="M18 0C10.268 0 4 6.26801 4 14V86C4 93.732 10.268 100 18 100H164C171.732 100 178 93.732 178 86V14C178 6.26801 171.732 0 164 0H18ZM24.4286 15.2778C20.0103 15.2778 16.4286 18.8596 16.4286 23.2778V76.7223C16.4286 81.1405 20.0103 84.7223 24.4286 84.7223H66.4286C70.8468 84.7223 74.4286 81.1405 74.4286 76.7223V23.2778C74.4286 18.8596 70.8468 15.2778 66.4286 15.2778H24.4286Z" fill="#F9F0E7"/>
<path d="M5.5 14C5.5 7.09644 11.0964 1.5 18 1.5V-1.5C9.43959 -1.5 2.5 5.43959 2.5 14H5.5ZM5.5 86V14H2.5V86H5.5ZM18 98.5C11.0964 98.5 5.5 92.9036 5.5 86H2.5C2.5 94.5604 9.43959 101.5 18 101.5V98.5ZM164 98.5H18V101.5H164V98.5ZM176.5 86C176.5 92.9036 170.904 98.5 164 98.5V101.5C172.56 101.5 179.5 94.5604 179.5 86H176.5ZM176.5 14V86H179.5V14H176.5ZM164 1.5C170.904 1.5 176.5 7.09644 176.5 14H179.5C179.5 5.43959 172.56 -1.5 164 -1.5V1.5ZM18 1.5H164V-1.5H18V1.5ZM17.9286 23.2778C17.9286 19.688 20.8387 16.7778 24.4286 16.7778V13.7778C19.1819 13.7778 14.9286 18.0311 14.9286 23.2778H17.9286ZM17.9286 76.7223V23.2778H14.9286V76.7223H17.9286ZM24.4286 83.2223C20.8387 83.2223 17.9286 80.3121 17.9286 76.7223H14.9286C14.9286 81.969 19.1819 86.2223 24.4286 86.2223V83.2223ZM66.4286 83.2223H24.4286V86.2223H66.4286V83.2223ZM72.9286 76.7223C72.9286 80.3121 70.0184 83.2223 66.4286 83.2223V86.2223C71.6753 86.2223 75.9286 81.969 75.9286 76.7223H72.9286ZM72.9286 23.2778V76.7223H75.9286V23.2778H72.9286ZM66.4286 16.7778C70.0184 16.7778 72.9286 19.688 72.9286 23.2778H75.9286C75.9286 18.0311 71.6753 13.7778 66.4286 13.7778V16.7778ZM24.4286 16.7778H66.4286V13.7778H24.4286V16.7778Z" fill="#001096" mask="url(#path-12-inside-1_1281_4127)"/>
</g>
<rect x="91" y="25" width="68.3571" height="1.5" rx="0.75" fill="#2D2B2A"/>
<rect x="91" y="36.1111" width="68.3571" height="1.5" rx="0.75" fill="#2D2B2A"/>
<rect x="91" y="46.5278" width="34.5238" height="1.5" rx="0.75" fill="#2D2B2A"/>
<rect x="28.8574" y="90.9722" width="34.5238" height="2.78" rx="1.39" fill="#DBDBC4"/>
<defs>
<filter id="filter0_d_1281_4127" x="21" y="33" width="50.7744" height="61.4563" filterUnits="userSpaceOnUse" color-interpolation-filters="sRGB">
<feFlood flood-opacity="0" result="BackgroundImageFix"/>
<feColorMatrix in="SourceAlpha" type="matrix" values="0 0 0 0 0 0 0 0 0 0 0 0 0 0 0 0 0 0 127 0" result="hardAlpha"/>
<feOffset dy="4"/>
<feGaussianBlur stdDeviation="2"/>
<feComposite in2="hardAlpha" operator="out"/>
<feColorMatrix type="matrix" values="0 0 0 0 0 0 0 0 0 0 0 0 0 0 0 0 0 0 0.25 0"/>
<feBlend mode="normal" in2="BackgroundImageFix" result="effect1_dropShadow_1281_4127"/>
<feBlend mode="normal" in="SourceGraphic" in2="effect1_dropShadow_1281_4127" result="shape"/>
</filter>
<filter id="filter1_d_1281_4127" x="0" y="0" width="182" height="108" filterUnits="userSpaceOnUse" color-interpolation-filters="sRGB">
<feFlood flood-opacity="0" result="BackgroundImageFix"/>
<feColorMatrix in="SourceAlpha" type="matrix" values="0 0 0 0 0 0 0 0 0 0 0 0 0 0 0 0 0 0 127 0" result="hardAlpha"/>
<feOffset dy="4"/>
<feGaussianBlur stdDeviation="2"/>
<feComposite in2="hardAlpha" operator="out"/>
<feColorMatrix type="matrix" values="0 0 0 0 0 0 0 0 0 0 0 0 0 0 0 0 0 0 0.25 0"/>
<feBlend mode="normal" in2="BackgroundImageFix" result="effect1_dropShadow_1281_4127"/>
<feBlend mode="normal" in="SourceGraphic" in2="effect1_dropShadow_1281_4127" result="shape"/>
</filter>
<linearGradient id="paint0_linear_1281_4127" x1="46.3907" y1="85.9416" x2="46.3907" y2="69.1548" gradientUnits="userSpaceOnUse">
<stop stop-color="#FFB09A"/>
<stop offset="0.21" stop-color="#FF9B8D"/>
<stop offset="0.47" stop-color="#FF8781"/>
<stop offset="0.74" stop-color="#FF7B79"/>
<stop offset="1" stop-color="#FF7777"/>
</linearGradient>
<linearGradient id="paint1_linear_1281_4127" x1="31.1584" y1="60.373" x2="31.1584" y2="49.1108" gradientUnits="userSpaceOnUse">
<stop stop-color="#FFB09A"/>
<stop offset="0.21" stop-color="#FF9B8D"/>
<stop offset="0.47" stop-color="#FF8781"/>
<stop offset="0.74" stop-color="#FF7B79"/>
<stop offset="1" stop-color="#FF7777"/>
</linearGradient>
<linearGradient id="paint2_linear_1281_4127" x1="31.2997" y1="56.8141" x2="31.2997" y2="50.8956" gradientUnits="userSpaceOnUse">
<stop stop-color="#FFE7D8"/>
<stop offset="0.29" stop-color="#FABDC9"/>
<stop offset="0.59" stop-color="#F597BB"/>
<stop offset="0.84" stop-color="#F280B3"/>
<stop offset="0.99" stop-color="#F177B0"/>
</linearGradient>
<linearGradient id="paint3_linear_1281_4127" x1="32.3332" y1="56.6224" x2="32.3332" y2="53.2161" gradientUnits="userSpaceOnUse">
<stop stop-color="#FFE7D8"/>
<stop offset="0.99" stop-color="#CE77F1"/>
</linearGradient>
<linearGradient id="paint4_linear_1281_4127" x1="61.9741" y1="60.373" x2="61.9741" y2="49.1108" gradientUnits="userSpaceOnUse">
<stop stop-color="#FFB09A"/>
<stop offset="0.21" stop-color="#FF9B8D"/>
<stop offset="0.47" stop-color="#FF8781"/>
<stop offset="0.74" stop-color="#FF7B79"/>
<stop offset="1" stop-color="#FF7777"/>
</linearGradient>
<linearGradient id="paint5_linear_1281_4127" x1="61.8363" y1="56.8141" x2="61.8363" y2="50.8956" gradientUnits="userSpaceOnUse">
<stop stop-color="#FFE7D8"/>
<stop offset="0.29" stop-color="#FABDC9"/>
<stop offset="0.59" stop-color="#F597BB"/>
<stop offset="0.84" stop-color="#F280B3"/>
<stop offset="0.99" stop-color="#F177B0"/>
</linearGradient>
<linearGradient id="paint6_linear_1281_4127" x1="57.2962" y1="57.6797" x2="62.1755" y2="57.6797" gradientUnits="userSpaceOnUse">
<stop stop-color="#FFE7D8"/>
<stop offset="0.29" stop-color="#FABDC9"/>
<stop offset="0.59" stop-color="#F597BB"/>
<stop offset="0.84" stop-color="#F280B3"/>
<stop offset="0.99" stop-color="#F177B0"/>
</linearGradient>
<linearGradient id="paint7_linear_1281_4127" x1="46.3873" y1="79.5796" x2="46.3873" y2="85.9416" gradientUnits="userSpaceOnUse">
<stop stop-color="#151F72"/>
<stop offset="0.19" stop-color="#151F72"/>
<stop offset="0.54" stop-color="#7FCBF5"/>
<stop offset="0.82" stop-color="#C574EC"/>
<stop offset="0.99" stop-color="#FBD1EE"/>
</linearGradient>
<linearGradient id="paint8_linear_1281_4127" x1="31.4799" y1="53.8548" x2="61.3014" y2="53.8548" gradientUnits="userSpaceOnUse">
<stop stop-color="#FFB09A"/>
<stop offset="0.06" stop-color="#FF9B89"/>
<stop offset="0.13" stop-color="#FF8A7B"/>
<stop offset="0.23" stop-color="#FF7F71"/>
<stop offset="0.36" stop-color="#FF786C"/>
<stop offset="0.71" stop-color="#FF766A"/>
</linearGradient>
</defs>
</svg>
