<svg width="182" height="108" viewBox="0 0 182 108" fill="none" xmlns="http://www.w3.org/2000/svg">
<path d="M143 68C143 65.7909 144.791 64 147 64H164C166.209 64 168 65.7909 168 68V89C168 91.2091 166.209 93 164 93H147C144.791 93 143 91.2091 143 89V68Z" fill="#F6C969"/>
<g filter="url(#filter0_d_1281_4284)">
<mask id="path-2-inside-1_1281_4284" fill="white">
<path fill-rule="evenodd" clip-rule="evenodd" d="M18 0C10.268 0 4 6.26801 4 14V86C4 93.732 10.268 100 18 100H164C171.732 100 178 93.732 178 86V14C178 6.26801 171.732 0 164 0H18ZM148 67C145.791 67 144 68.7909 144 71V85C144 87.2091 145.791 89 148 89H162C164.209 89 166 87.2091 166 85V71C166 68.7909 164.209 67 162 67H148Z"/>
</mask>
<path fill-rule="evenodd" clip-rule="evenodd" d="M18 0C10.268 0 4 6.26801 4 14V86C4 93.732 10.268 100 18 100H164C171.732 100 178 93.732 178 86V14C178 6.26801 171.732 0 164 0H18ZM148 67C145.791 67 144 68.7909 144 71V85C144 87.2091 145.791 89 148 89H162C164.209 89 166 87.2091 166 85V71C166 68.7909 164.209 67 162 67H148Z" fill="#F9F0E7"/>
<path d="M5.5 14C5.5 7.09644 11.0964 1.5 18 1.5V-1.5C9.43959 -1.5 2.5 5.43959 2.5 14H5.5ZM5.5 86V14H2.5V86H5.5ZM18 98.5C11.0964 98.5 5.5 92.9036 5.5 86H2.5C2.5 94.5604 9.43959 101.5 18 101.5V98.5ZM164 98.5H18V101.5H164V98.5ZM176.5 86C176.5 92.9036 170.904 98.5 164 98.5V101.5C172.56 101.5 179.5 94.5604 179.5 86H176.5ZM176.5 14V86H179.5V14H176.5ZM164 1.5C170.904 1.5 176.5 7.09644 176.5 14H179.5C179.5 5.43959 172.56 -1.5 164 -1.5V1.5ZM18 1.5H164V-1.5H18V1.5ZM145.5 71C145.5 69.6193 146.619 68.5 148 68.5V65.5C144.962 65.5 142.5 67.9624 142.5 71H145.5ZM145.5 85V71H142.5V85H145.5ZM148 87.5C146.619 87.5 145.5 86.3807 145.5 85H142.5C142.5 88.0376 144.962 90.5 148 90.5V87.5ZM162 87.5H148V90.5H162V87.5ZM164.5 85C164.5 86.3807 163.381 87.5 162 87.5V90.5C165.038 90.5 167.5 88.0376 167.5 85H164.5ZM164.5 71V85H167.5V71H164.5ZM162 68.5C163.381 68.5 164.5 69.6193 164.5 71H167.5C167.5 67.9624 165.038 65.5 162 65.5V68.5ZM148 68.5H162V65.5H148V68.5Z" fill="#001096" mask="url(#path-2-inside-1_1281_4284)"/>
</g>
<rect x="134" y="10" width="3" height="9" rx="0.5" fill="#DBDBC4"/>
<rect x="148.733" y="10" width="2" height="9" rx="0.5" fill="#DBDBC4"/>
<rect x="154" y="10" width="2" height="9" rx="0.5" fill="#DBDBC4"/>
<rect x="166" y="10" width="1.3" height="9" rx="0.5" fill="#DBDBC4"/>
<rect x="157" y="10" width="2" height="9" rx="0.5" fill="#DBDBC4"/>
<rect x="141.8" y="10" width="5" height="9" rx="0.5" fill="#DBDBC4"/>
<rect x="161" y="10" width="4" height="9" rx="0.5" fill="#DBDBC4"/>
<rect x="137.767" y="10" width="1" height="9" rx="0.5" fill="#DBDBC4"/>
<rect x="151.2" y="10" width="1" height="9" rx="0.5" fill="#DBDBC4"/>
<rect x="20.25" y="32.25" width="98.5" height="0.5" rx="0.25" fill="#2D2B2A" stroke="#2D2B2A" stroke-width="0.5"/>
<rect x="20.25" y="41.75" width="98.5" height="0.5" rx="0.25" fill="#2D2B2A" stroke="#2D2B2A" stroke-width="0.5"/>
<rect x="20.25" y="51.25" width="49.5" height="0.5" rx="0.25" fill="#2D2B2A" stroke="#2D2B2A" stroke-width="0.5"/>
<rect x="20.25" y="75.25" width="49.5" height="0.5" rx="0.25" fill="#2D2B2A" stroke="#2D2B2A" stroke-width="0.5"/>
<rect x="20.25" y="84.75" width="49.5" height="0.5" rx="0.25" fill="#2D2B2A" stroke="#2D2B2A" stroke-width="0.5"/>
<defs>
<filter id="filter0_d_1281_4284" x="0" y="0" width="182" height="108" filterUnits="userSpaceOnUse" color-interpolation-filters="sRGB">
<feFlood flood-opacity="0" result="BackgroundImageFix"/>
<feColorMatrix in="SourceAlpha" type="matrix" values="0 0 0 0 0 0 0 0 0 0 0 0 0 0 0 0 0 0 127 0" result="hardAlpha"/>
<feOffset dy="4"/>
<feGaussianBlur stdDeviation="2"/>
<feComposite in2="hardAlpha" operator="out"/>
<feColorMatrix type="matrix" values="0 0 0 0 0 0 0 0 0 0 0 0 0 0 0 0 0 0 0.25 0"/>
<feBlend mode="normal" in2="BackgroundImageFix" result="effect1_dropShadow_1281_4284"/>
<feBlend mode="normal" in="SourceGraphic" in2="effect1_dropShadow_1281_4284" result="shape"/>
</filter>
</defs>
</svg>
