<svg width="20" height="18" viewBox="0 0 20 18" fill="none" xmlns="http://www.w3.org/2000/svg">
<rect opacity="0.4" y="2" width="19" height="16" rx="4" fill="#5E646E"/>
<path d="M0 8H19V14C19 16.2091 17.2091 18 15 18H4C1.79086 18 0 16.2091 0 14V8Z" fill="#001096"/>
<path d="M4.66675 9C5.77136 9 6.66675 9.89539 6.66675 11C6.66675 12.1046 5.77136 13 4.66675 13C3.56214 13 2.66675 12.1046 2.66675 11C2.66675 9.89539 3.56214 9 4.66675 9Z" fill="#2CC05C"/>
<path d="M2.41287 15H6.91933C7.06224 15 7.20176 14.977 7.33333 14.9349C7.14845 13.4645 6.02552 12.3333 4.66667 12.3333C3.30781 12.3333 2.18489 13.4645 2 14.9349C2.13158 14.977 2.26996 15 2.41401 15" fill="#2CC05C"/>
<rect x="10" y="10" width="7" height="1" rx="0.5" fill="#2CC05C"/>
<rect x="10" y="12" width="5.25" height="1" rx="0.5" fill="#2CC05C"/>
<rect x="10" y="14" width="3.5" height="1" rx="0.5" fill="#2CC05C"/>
<g clip-path="url(#clip0_619_182)">
<path d="M17.722 0.583313H15.2778C14.2162 0.583313 13.5833 1.21623 13.5833 2.2779V4.71915C13.5833 5.78373 14.2162 6.41665 15.2778 6.41665H17.7191C18.7808 6.41665 19.4137 5.78373 19.4137 4.72206V2.2779C19.4166 1.21623 18.7837 0.583313 17.722 0.583313Z" fill="#001096"/>
<path d="M16.0857 4.54474C16.0277 4.54469 15.9721 4.52161 15.9311 4.48058L15.1057 3.65516C15.0651 3.614 15.0422 3.55845 15.0422 3.50058C15.0422 3.4427 15.0651 3.38716 15.1057 3.34599C15.1903 3.26141 15.3303 3.26141 15.4149 3.34599L16.0857 4.01683L17.5849 2.51766C17.6695 2.43308 17.8095 2.43308 17.8941 2.51766C17.9786 2.60224 17.9786 2.74224 17.8941 2.82683L16.2403 4.48058C16.1993 4.52161 16.1437 4.54469 16.0857 4.54474Z" fill="#2CC05C"/>
</g>
<defs>
<clipPath id="clip0_619_182">
<rect width="7" height="7" fill="white" transform="translate(13)"/>
</clipPath>
</defs>
</svg>
