<svg width="241" height="241" viewBox="0 0 241 241" fill="none" xmlns="http://www.w3.org/2000/svg">
<path d="M106.633 79.9104C99.4646 75.7655 89.3762 75.3484 83.7454 78.9719C78.1147 82.5954 79.0531 89.0864 85.5963 93.518L92.8172 98.08L117.53 86.6881L106.659 79.8843H106.607L106.633 79.9104Z" fill="black"/>
<path d="M99.9324 102.042L92.8418 98.0538C92.8418 98.0538 92.8418 90.3375 92.9982 87.2876C93.0764 85.6192 96.752 62.9137 112.132 60.8543C115.052 60.4633 121.465 65.2338 121.465 65.2338" fill="black"/>
<path d="M99.9324 102.042L92.8418 98.0538C92.8418 98.0538 92.8418 90.3375 92.9982 87.2876C93.0764 85.6192 96.752 62.9137 112.132 60.8543C115.052 60.4633 121.465 65.2338 121.465 65.2338" fill="black"/>
<path d="M126.758 73.628C126.628 65.5469 120.997 62.2883 114.01 66.3028C106.92 70.3695 101.028 80.2494 100.507 88.6173L99.9336 102.016L126.523 86.61L126.836 73.5759H126.784L126.758 73.628Z" fill="#91190F"/>
<path d="M112.211 56.2395L101.731 62.2353L102.018 49.8528L112.498 43.8311L112.211 56.2395Z" fill="black"/>
<path d="M119.328 60.2811L108.849 66.3028L109.135 53.8943L119.615 47.8726L119.328 60.2811Z" fill="#91190F"/>
<path d="M112.498 43.8311L119.614 47.8716L109.135 53.8934L108.848 66.3019L101.731 62.2353L102.018 49.8528L112.498 43.8311Z" fill="black"/>
<path d="M176.336 112.617C169.167 108.472 159.078 108.055 153.448 111.678C147.817 115.302 148.755 121.793 155.298 126.225L162.519 130.786L187.232 119.395L176.362 112.591H176.309L176.336 112.617Z" fill="black"/>
<path d="M169.633 134.749L162.542 130.761C162.542 130.761 162.542 123.045 162.698 119.995C162.777 118.326 166.452 95.6208 181.833 93.5614C184.752 93.1703 191.165 97.9408 191.165 97.9408" fill="black"/>
<path d="M169.633 134.749L162.542 130.761C162.542 130.761 162.542 123.045 162.698 119.995C162.777 118.326 166.452 95.6208 181.833 93.5614C184.752 93.1703 191.165 97.9408 191.165 97.9408" fill="black"/>
<path d="M196.46 106.335C196.33 98.2534 190.699 94.9949 183.713 99.0094C176.622 103.076 170.731 112.956 170.209 121.324L169.636 134.723L196.225 119.317L196.538 106.282H196.486L196.46 106.335Z" fill="#7FCBF5"/>
<path d="M181.913 88.9461L171.434 94.9418L171.72 82.5594L182.2 76.5376L181.913 88.9461Z" fill="black"/>
<path d="M189.03 92.9876L178.551 99.0094L178.838 86.6009L189.317 80.5791L189.03 92.9876Z" fill="#7FCBF5"/>
<path d="M182.2 76.5376L189.316 80.5782L178.837 86.5999L178.55 99.0084L171.434 94.9418L171.72 82.5594L182.2 76.5376Z" fill="black"/>
<path d="M70.7476 143.764C63.5788 139.62 53.4904 139.202 47.8597 142.826C42.2289 146.449 43.1674 152.94 49.7105 157.372L56.9314 161.934L81.6442 150.542L70.7737 143.738H70.7215L70.7476 143.764Z" fill="black"/>
<path d="M64.0456 165.896L56.9551 161.908C56.9551 161.908 56.9551 154.192 57.1115 151.142C57.1897 149.473 60.8653 126.768 76.2456 124.708C79.1652 124.317 85.578 129.088 85.578 129.088" fill="black"/>
<path d="M64.0456 165.896L56.9551 161.908C56.9551 161.908 56.9551 154.192 57.1115 151.142C57.1897 149.473 60.8653 126.768 76.2456 124.708C79.1652 124.317 85.578 129.088 85.578 129.088" fill="black"/>
<path d="M90.8711 137.482C90.7408 129.401 85.11 126.142 78.1237 130.157C71.0332 134.224 65.1417 144.103 64.6204 152.471L64.0469 165.87L90.6365 150.464L90.9493 137.43H90.8972L90.8711 137.482Z" fill="#7FCBF5"/>
<path d="M76.3251 120.094L65.8457 126.089L66.1325 113.707L76.6119 107.685L76.3251 120.094Z" fill="black"/>
<path d="M83.4423 124.135L72.9629 130.157L73.2496 117.748L83.7291 111.727L83.4423 124.135Z" fill="#7FCBF5"/>
<path d="M76.6119 107.685L83.7285 111.726L73.2491 117.747L72.9623 130.156L65.8457 126.089L66.1325 113.707L76.6119 107.685Z" fill="black"/>
<path d="M125.754 160.411C114.157 153.705 97.8357 153.03 88.7263 158.892C79.6169 164.754 81.1351 175.256 91.7206 182.425L103.403 189.805L143.383 171.376L125.797 160.368H125.712L125.754 160.411Z" fill="black"/>
<path d="M114.913 196.215L103.441 189.763C103.441 189.763 103.441 177.28 103.694 172.345C103.821 169.646 109.767 132.913 134.65 129.582C139.373 128.949 149.748 136.667 149.748 136.667" fill="black"/>
<path d="M114.913 196.215L103.441 189.763C103.441 189.763 103.441 177.28 103.694 172.345C103.821 169.646 109.767 132.913 134.65 129.582C139.373 128.949 149.748 136.667 149.748 136.667" fill="black"/>
<path d="M158.311 150.247C158.1 137.174 148.991 131.902 137.689 138.397C126.217 144.976 116.686 160.959 115.843 174.497L114.915 196.174L157.932 171.25L158.438 150.163H158.353L158.311 150.247Z" fill="#91190F"/>
<path d="M134.776 122.116L117.822 131.816L118.286 111.784L135.24 102.042L134.776 122.116Z" fill="black"/>
<path d="M146.292 128.655L129.338 138.397L129.802 118.323L146.755 108.581L146.292 128.655Z" fill="#91190F"/>
<path d="M135.24 102.042L146.753 108.579L129.799 118.321L129.336 138.395L117.822 131.816L118.286 111.784L135.24 102.042Z" fill="black"/>
</svg>
